<?xml version="1.0" encoding="UTF-8"?>
<svg xmlns="http://www.w3.org/2000/svg" 
     width="1024" height="1024" 
     viewBox="0 0 1024 1024"
     style="background: transparent;">
  <g transform="translate(0,1024) scale(0.1,-0.1)" fill="#222222" stroke="none">
    <path d="M2565 7603 c-89 -11 -131 -26 -198 -72 -40 -27 -80 -57 -90 -68 -14
-16 -27 -19 -61 -16 -57 7 -103 -17 -123 -65 -8 -20 -23 -76 -32 -125 l-17
-89 -130 1 c-154 2 -187 -10 -219 -76 -20 -43 -20 -43 -74 -43 -29 0 -71 -5
-93 -12 -79 -24 -184 -162 -208 -274 -5 -27 -14 -115 -19 -195 -10 -169 -15
-178 -105 -209 -82 -28 -116 -48 -179 -108 -93 -89 -147 -206 -182 -392 -24
-127 -24 -322 -1 -410 43 -159 153 -305 279 -371 89 -46 107 -77 107 -187 l0
-86 52 -51 c29 -27 86 -68 127 -89 l74 -39 114 6 113 5 6 -26 c13 -59 38 -131
71 -201 41 -86 129 -181 210 -224 70 -37 207 -84 272 -93 l52 -7 -8 -41 c-13
-65 -3 -383 13 -429 8 -22 14 -63 14 -91 0 -76 24 -144 70 -200 46 -55 47 -65
25 -212 -31 -205 -16 -290 64 -355 26 -21 52 -55 67 -89 53 -117 121 -180 238
-220 113 -38 272 -20 339 39 29 27 32 35 35 102 5 94 -15 149 -99 279 -100
153 -149 283 -149 393 0 48 4 63 25 85 50 53 59 100 61 317 1 126 8 237 18
300 9 55 16 117 16 137 0 73 9 81 111 107 52 13 100 25 107 28 18 7 15 -17
-13 -85 -14 -33 -43 -125 -66 -202 -42 -145 -45 -185 -16 -231 16 -26 -10
-121 -68 -246 -57 -120 -88 -241 -74 -282 13 -36 76 -82 175 -127 48 -22 105
-59 153 -101 87 -75 162 -114 275 -143 91 -23 129 -25 192 -9 63 16 75 38 77
145 2 102 -8 123 -97 205 -61 55 -183 231 -192 276 -10 49 13 103 50 118 17 8
57 40 89 72 51 52 65 76 116 199 66 157 160 364 227 501 61 123 73 195 52 307
-19 98 -34 132 -86 201 -31 42 -164 144 -204 157 -6 2 -1 18 10 38 27 46 291
654 305 703 20 68 11 72 -154 72 -79 0 -214 -2 -299 -4 l-155 -4 -32 44 c-26
35 -33 54 -33 91 0 36 -15 82 -59 184 -33 74 -72 154 -88 177 -42 61 -143 161
-197 192 -30 17 -54 41 -67 66 -10 22 -23 39 -28 39 -5 0 6 30 25 68 39 75 64
159 64 213 l0 35 58 -4 c44 -3 62 0 74 11 18 19 68 211 68 264 0 21 -7 48 -15
60 -22 31 -157 113 -198 120 -27 4 -43 16 -67 49 -64 90 -219 174 -356 194
-70 10 -85 10 -139 3z m271 -62 c99 -39 159 -89 202 -169 35 -64 62 -158 62
-210 0 -27 -3 -32 -17 -28 -46 14 -156 26 -235 26 -83 0 -88 1 -92 23 -22 106
-32 140 -59 197 -33 71 -121 165 -162 176 -14 3 -22 11 -19 16 4 7 50 9 123 6
100 -4 127 -9 197 -37z m-298 -7 c85 -42 157 -149 187 -276 23 -99 29 -93 -91
-107 -58 -6 -133 -21 -167 -31 -34 -11 -62 -18 -64 -17 -1 2 4 27 12 57 8 30
15 75 15 98 0 49 -22 75 -110 135 -25 16 -47 32 -50 34 -7 6 52 52 101 77 25
14 51 32 58 40 19 23 49 20 109 -10z m-231 -159 c71 -52 74 -55 45 -55 -51 0
-77 -34 -101 -132 -12 -48 -24 -110 -28 -137 -3 -28 -9 -51 -13 -51 -4 0 -37
31 -73 69 -75 77 -75 79 -52 193 23 108 18 105 80 52 31 -26 58 -45 60 -42 5
4 -51 54 -104 94 -12 10 -11 15 12 38 43 43 85 36 174 -29z m799 -77 c24 -48
54 -147 54 -180 0 -15 -4 -17 -18 -9 -13 7 -22 31 -30 87 -7 43 -24 103 -37
133 -28 63 -6 41 31 -31z m108 -6 l58 -35 -30 -12 c-30 -13 -52 -55 -53 -104
0 -14 -9 6 -19 46 -10 39 -28 90 -40 113 l-21 42 23 -7 c13 -4 49 -23 82 -43z
m-883 -3 c-17 -7 -22 -15 -18 -29 3 -13 0 -20 -9 -20 -8 0 -14 5 -14 12 0 18
31 48 49 47 10 0 7 -4 -8 -10z m77 -26 c3 -32 2 -33 -35 -32 -24 1 -30 3 -15
6 31 6 40 32 16 50 -18 14 -18 14 6 11 20 -2 26 -9 28 -35z m860 -44 c-21 -12
-24 -35 -5 -42 6 -3 0 -6 -15 -6 -16 -1 -28 4 -28 10 0 24 22 49 43 49 20 -1
20 -2 5 -11z m-868 -11 c0 -7 -10 -57 -22 -112 -27 -116 -44 -136 -103 -116
-19 6 -35 17 -35 23 0 7 10 58 22 115 l23 102 57 0 c40 0 58 -4 58 -12z m-342
-82 c15 -15 9 -16 -85 -16 -110 0 -118 -4 -129 -59 -6 -31 -9 -32 -38 -27 -17
4 -48 9 -68 13 -43 6 -46 15 -18 60 26 44 64 53 203 49 93 -2 122 -7 135 -20z
m1252 20 c0 -13 -32 -156 -41 -183 -10 -30 -14 -33 -50 -33 -24 0 -42 5 -45
14 -4 11 24 144 41 194 4 11 95 19 95 8z m-277 -20 c64 -12 116 -39 124 -63 2
-6 -18 0 -44 13 -119 59 -537 53 -686 -10 -36 -15 -49 -8 -24 12 17 14 111 41
182 51 95 14 372 12 448 -3z m-942 -45 c3 -3 4 -24 2 -46 l-5 -40 -119 3
c-131 3 -131 3 -105 67 l15 34 103 -6 c57 -3 106 -8 109 -12z m946 -2 c77 -15
83 -24 83 -133 0 -154 -41 -272 -128 -367 -59 -64 -106 -87 -196 -96 -69 -6
-173 15 -237 47 -56 29 -114 84 -160 152 -59 87 -63 103 -40 157 11 26 21 75
23 111 3 60 5 66 35 86 79 53 437 78 620 43z m-808 -118 c35 -19 21 -103 -20
-116 -28 -9 -38 2 -46 48 -6 37 -7 39 -14 17 -6 -24 -7 -24 -23 12 -16 37 -22
109 -9 121 3 4 25 -11 48 -32 23 -21 52 -44 64 -50z m-474 55 c62 -14 61 -15
-14 -36 -26 -7 -62 -29 -90 -54 l-46 -42 -84 21 c-47 11 -86 25 -88 32 -6 17
70 72 113 82 57 13 141 12 209 -3z m335 -64 c0 -16 -8 -32 -19 -39 -11 -7 -29
-42 -41 -82 -34 -107 -50 -129 -98 -129 -73 -1 -239 -106 -257 -162 -3 -11
-23 -29 -43 -42 -20 -12 -56 -40 -79 -61 l-42 -39 5 54 c25 234 53 344 109
420 67 92 112 107 313 108 l152 0 0 -28z m265 -58 c-3 -24 -15 -53 -26 -66
-23 -25 -23 -27 7 52 7 19 14 49 15 65 1 20 3 24 6 11 3 -10 2 -38 -2 -62z
m-75 26 c0 -43 -23 -100 -40 -100 -15 0 -12 11 8 33 11 12 17 35 17 63 0 24 3
44 8 44 4 0 7 -18 7 -40z m50 8 c-1 -30 -36 -108 -49 -108 -6 0 -4 15 5 35 7
19 14 48 14 65 0 20 5 30 15 30 9 0 15 -9 15 -22z m-821 -39 c84 -19 90 -22
81 -40 -6 -10 -13 -19 -16 -19 -9 0 -179 43 -183 46 -4 3 18 34 24 34 2 0 44
-9 94 -21z m626 -136 c83 -182 385 -353 623 -353 73 0 142 19 177 48 14 12 13
8 -4 -11 -68 -76 -302 -61 -498 32 -101 49 -141 75 -209 141 -29 28 -57 49
-62 46 -5 -3 -18 4 -28 17 l-19 22 23 -19 c34 -29 26 -10 -17 42 -63 74 -75
122 -44 169 l18 27 8 -54 c4 -30 18 -78 32 -107z m15 81 c0 -6 16 -30 37 -53
28 -33 36 -51 35 -78 -1 -20 -3 -38 -6 -40 -15 -15 -95 150 -96 196 0 24 0 24
15 5 8 -10 15 -24 15 -30z m-714 12 c27 -8 68 -20 92 -26 42 -11 42 -11 28
-38 -18 -37 -44 -186 -53 -302 -6 -87 -9 -98 -40 -139 -47 -61 -64 -97 -113
-241 -39 -113 -44 -135 -45 -230 -1 -58 -8 -127 -14 -155 -20 -79 -18 -250 2
-318 17 -57 74 -127 134 -168 20 -13 21 -19 16 -137 l-6 -123 -40 7 c-34 5
-43 3 -56 -15 -14 -18 -19 -20 -34 -9 -25 19 -12 56 18 50 21 -4 24 0 30 42
10 62 -1 113 -24 119 -31 8 -41 -13 -43 -87 l-1 -71 -6 70 c-4 39 -12 79 -20
91 -11 17 -11 79 3 400 10 208 20 449 23 534 5 132 9 159 26 182 15 20 18 35
13 70 -16 103 4 388 31 461 9 26 20 47 23 47 4 0 29 -6 56 -14z m799 -44 c31
-6 44 -16 58 -42 l19 -35 -22 28 c-25 31 -53 37 -43 10 6 -16 5 -17 -13 -3
-39 29 -64 54 -64 63 0 5 6 4 13 -2 8 -6 31 -14 52 -19z m112 -70 c63 -133
187 -233 323 -262 l45 -9 -53 4 c-78 6 -172 56 -235 125 -46 50 -127 178 -127
201 0 24 18 1 47 -59z m-278 15 c22 -46 103 -146 130 -161 9 -5 45 -28 81 -51
104 -68 204 -114 308 -141 80 -22 111 -25 187 -22 49 3 99 8 110 12 11 4 7 -1
-10 -10 -50 -29 -177 -31 -292 -4 -108 25 -265 99 -332 157 -23 19 -41 31 -41
27 0 -5 -25 16 -55 46 -30 29 -53 56 -50 58 2 3 -6 19 -19 36 -21 28 -50 96
-41 96 2 0 13 -19 24 -43z m-18 -42 c9 -37 29 -61 118 -147 75 -74 126 -114
176 -140 81 -42 238 -94 243 -80 2 6 20 6 47 0 25 -5 80 -8 124 -6 43 2 77 0
75 -4 -11 -17 -124 -41 -194 -41 -87 0 -169 21 -255 66 -108 58 -365 337 -365
399 0 24 21 -8 31 -47z m231 -29 c6 4 9 1 6 -6 -2 -8 -10 -16 -16 -18 -8 -2
-11 11 -10 45 1 43 2 44 5 10 3 -23 8 -35 15 -31z m148 -116 c121 -121 355
-160 490 -83 44 26 45 26 25 3 -52 -59 -195 -78 -334 -44 -85 21 -230 90 -304
145 -51 38 -56 44 -38 51 23 8 41 38 41 69 0 16 10 6 39 -39 22 -33 58 -79 81
-102z m-421 100 c48 -22 48 -23 -5 -55 l-36 -21 -46 22 c-26 13 -57 24 -69 24
-61 1 13 48 77 49 19 0 55 -8 79 -19z m-94 -69 c33 -15 80 -47 105 -71 31 -29
34 -33 8 -12 -55 45 -126 84 -177 98 -31 9 -38 13 -21 13 14 1 52 -12 85 -28z
m291 -113 c20 -27 35 -50 33 -51 -2 -1 -25 -9 -51 -18 l-48 -16 -30 48 c-17
26 -52 66 -76 89 -48 44 -48 49 0 74 29 14 30 14 83 -31 29 -25 69 -68 89 -95z
m-334 105 c138 -53 275 -221 333 -406 34 -107 33 -127 -5 -127 l-30 0 0 60 c0
102 -63 255 -142 345 -49 55 -149 113 -211 121 -36 5 -53 2 -81 -14 -33 -20
-35 -20 -24 -2 26 41 90 51 160 23z m1186 -33 c11 -18 31 -128 32 -172 0 -15
-4 -16 -42 -2 l-43 14 0 83 c0 45 4 87 8 94 10 15 29 8 45 -17z m-1155 -28
c91 -49 188 -190 216 -312 15 -65 13 -169 -4 -226 -14 -48 -92 -170 -102 -161
-2 3 8 34 22 69 48 113 60 182 47 273 -27 186 -176 375 -296 375 -31 0 -37 3
-26 11 22 15 87 2 143 -29z m-52 -18 c153 -91 244 -304 209 -488 -15 -82 -30
-97 -18 -18 17 102 -19 263 -67 302 -17 13 -16 10 3 -21 30 -49 53 -159 50
-233 l-3 -61 -27 85 c-24 75 -78 180 -93 180 -3 0 10 -31 29 -68 42 -84 64
-160 68 -232 3 -62 -9 -150 -21 -150 -4 0 -13 15 -19 34 -19 51 -157 240 -200
274 -45 35 -82 56 -82 45 0 -4 23 -23 50 -41 53 -34 159 -166 202 -252 13 -25
28 -52 35 -60 7 -9 8 -21 4 -28 -6 -10 -12 -7 -24 11 -20 31 -134 106 -207
137 -127 53 -271 72 -355 46 -27 -8 -51 -13 -54 -10 -9 9 89 278 121 331 29
48 36 53 84 63 62 13 109 6 183 -26 35 -16 49 -19 41 -9 -25 30 -121 57 -187
53 l-63 -4 23 24 c20 22 29 23 93 20 54 -2 85 -10 135 -35 55 -28 60 -29 37
-8 -36 31 -129 65 -181 65 -40 1 -41 1 -22 16 96 74 193 96 256 58z m499 -62
c30 -18 51 -32 46 -32 -14 0 -109 57 -141 86 l-30 26 35 -24 c19 -14 60 -39
90 -56z m626 -116 c-8 -71 -17 -131 -21 -134 -3 -3 -10 -1 -16 5 -7 7 -5 43 7
119 36 230 56 237 30 10z m231 87 c54 -43 122 -131 160 -208 39 -79 107 -244
102 -249 -18 -15 -139 -92 -205 -130 -59 -34 -92 -46 -121 -46 l-41 0 5 48 c5
41 12 53 53 89 26 23 61 64 78 90 37 58 74 166 70 202 -3 20 -7 12 -16 -29
-24 -105 -87 -214 -151 -259 -24 -17 -31 -18 -46 -7 -16 12 -14 18 28 92 45
79 84 184 67 184 -4 0 -18 -30 -30 -66 -26 -78 -35 -80 -14 -4 19 74 29 202
17 225 -8 13 -12 -10 -15 -86 -4 -81 -13 -126 -38 -204 l-33 -100 -9 40 c-11
48 -3 129 20 205 11 38 16 91 16 172 l1 116 30 -21 c16 -11 49 -36 72 -54z
m-1087 -15 c30 -55 22 -48 -25 22 -20 30 -28 47 -18 38 11 -10 30 -37 43 -60z
m131 -3 c-1 -6 -19 -16 -42 -24 -33 -11 -43 -11 -52 -1 -9 10 -9 11 1 6 6 -4
12 -3 12 2 0 9 58 31 73 28 5 -1 8 -6 8 -11z m92 -152 c0 -21 -5 -59 -12 -85
-13 -47 -15 -48 -52 -48 -30 0 -39 4 -39 18 0 9 -16 55 -35 101 -19 47 -33 86
-31 88 2 2 14 -21 27 -52 25 -60 23 -59 97 -29 37 15 38 18 13 75 -32 75 -32
97 0 32 16 -34 31 -79 32 -100z m-1033 102 c0 -39 -8 -65 -21 -65 -10 0 -12
93 -3 103 13 13 24 -5 24 -38z m1619 -35 c-7 -39 -15 -73 -19 -75 -4 -2 -18
-1 -32 3 l-25 7 40 73 c22 40 41 71 44 68 3 -3 -1 -37 -8 -76z m-659 61 c0 -9
-54 -32 -74 -30 -8 0 51 32 72 38 1 1 2 -3 2 -8z m250 -91 c128 -30 278 -7
347 53 l37 32 -29 -53 c-16 -30 -42 -65 -59 -79 -26 -21 -37 -24 -85 -20 -31
2 -85 12 -121 22 -134 35 -190 30 -190 -17 0 -10 -4 -17 -9 -14 -23 15 -41
-22 -50 -102 -5 -46 -12 -86 -16 -90 -7 -7 -2 85 11 203 4 36 0 65 -13 100
l-19 50 70 -36 c39 -20 96 -42 126 -49z m-1262 59 c-2 -16 -15 -25 -45 -34
-199 -59 -326 -289 -340 -616 -7 -147 10 -241 59 -340 38 -77 136 -177 206
-213 37 -19 52 -32 52 -47 0 -24 -23 -20 -80 14 -135 81 -234 226 -261 380
-17 101 -6 339 20 443 37 149 100 267 178 330 38 32 181 104 206 104 5 0 7
-10 5 -21z m1041 -40 c6 -18 11 -34 11 -35 0 -6 -73 -34 -77 -30 -2 2 -6 19
-10 39 -5 31 -2 36 23 45 41 15 41 15 53 -19z m781 -42 c0 -39 -13 -50 -43
-36 -26 12 -33 32 -21 62 9 24 64 1 64 -26z m-1813 6 c3 -16 -1 -192 -11 -393
-9 -201 -20 -441 -23 -534 -5 -146 -9 -172 -25 -188 -18 -18 -19 -18 -60 3
-69 35 -163 137 -202 218 -45 95 -60 188 -53 326 16 288 114 491 272 566 76
36 93 37 102 2z m1786 -126 c-4 -29 -7 -85 -6 -125 1 -51 -2 -72 -10 -69 -12
4 -12 83 -1 150 4 23 -2 35 -29 60 -21 21 -32 39 -29 53 l3 22 40 -20 40 -19
-8 -52z m-565 58 c-3 -27 -6 -29 -27 -16 -17 11 -7 41 14 41 10 0 14 -8 13
-25z m62 5 c0 -13 -7 -20 -20 -20 -13 0 -20 7 -20 20 0 13 7 20 20 20 13 0 20
-7 20 -20z m350 5 c9 -11 10 -19 2 -27 -13 -13 -28 -4 -35 22 -6 24 15 27 33
5z m-230 -17 c0 -4 -22 -8 -50 -8 -28 0 -50 5 -50 10 0 7 20 10 50 9 28 -2 50
-6 50 -11z m134 -4 c5 -12 2 -15 -10 -10 -8 3 -25 6 -37 7 -21 0 -21 1 -2 9
30 13 42 12 49 -6z m-356 -16 c9 -9 62 -15 160 -19 l147 -5 -138 -2 c-107 -2
-145 1 -167 13 -29 15 -38 25 -22 25 4 0 14 -6 20 -12z m516 -9 c20 -12 36
-23 36 -26 0 -9 -213 6 -221 14 -5 5 27 8 69 8 56 0 76 3 75 13 -4 16 0 15 41
-9z m-491 -92 c-5 -117 -13 -157 -34 -157 -15 0 -19 7 -19 35 0 27 -5 38 -23
46 -21 10 -23 16 -20 62 2 29 6 67 9 85 l5 33 42 -26 c41 -25 42 -26 40 -78z
m297 14 c0 -20 -7 -99 -15 -176 -8 -77 -15 -147 -15 -155 -1 -9 -4 -7 -10 6
-8 21 -13 21 -152 16 -79 -2 -145 -6 -147 -8 -2 -1 -6 -33 -9 -70 l-5 -67 147
5 c106 3 150 8 156 17 6 11 8 11 12 0 4 -11 31 -13 133 -10 104 2 127 1 123
-10 -6 -17 -83 -24 -402 -34 l-239 -8 7 54 c3 30 7 79 8 110 1 56 1 57 32 55
24 -1 31 3 31 18 0 27 -33 46 -45 26 -8 -13 -10 -13 -10 2 0 13 11 18 52 20
l53 3 6 50 c4 28 10 80 14 117 l7 67 71 4 c40 2 100 3 135 4 l62 0 0 -36z
m216 33 l29 -5 -9 -118 -9 -118 -30 -9 c-98 -29 -91 -191 7 -195 47 -3 -79
-17 -156 -18 -49 -1 -68 3 -68 12 0 7 9 107 20 222 11 116 20 216 20 223 0 13
139 18 196 6z m-666 -68 c0 -35 -4 -45 -19 -49 -12 -3 -21 -15 -23 -33 -2 -16
-9 -29 -16 -29 -7 0 -17 -7 -23 -15 -9 -12 -9 -11 -4 5 4 11 10 53 13 93 l5
72 33 0 c33 0 34 -1 34 -44z m-103 -16 c13 0 14 -9 9 -52 -4 -29 -16 -73 -27
-97 -24 -55 -24 -63 1 -31 15 18 18 20 13 6 -5 -14 -3 -17 6 -11 10 6 11 -7 6
-61 -4 -38 -8 -69 -9 -70 0 0 -25 -22 -53 -48 l-53 -48 -80 13 -80 13 70 29
c49 20 87 46 130 87 33 32 60 63 60 70 0 10 -3 10 -15 0 -8 -7 -15 -9 -15 -5
0 4 -20 -11 -44 -33 -59 -55 -166 -108 -166 -83 0 6 29 39 64 75 75 75 109
130 126 204 9 40 16 52 27 48 8 -3 22 -6 30 -6z m-575 -95 c155 -40 333 -164
312 -218 -4 -11 -17 -2 -49 32 -112 120 -404 204 -540 156 -44 -16 -54 -12
-39 13 27 42 184 51 316 17z m465 -37 c-14 -24 -45 -61 -68 -83 l-43 -40 47
52 c26 29 54 68 64 87 9 20 19 34 21 31 2 -2 -7 -23 -21 -47z m291 35 c-2 -12
-14 -19 -36 -21 -27 -3 -32 0 -32 17 0 17 6 21 36 21 28 0 35 -3 32 -17z
m1072 -17 c0 -18 -30 -39 -133 -95 -42 -23 -85 -41 -95 -39 -11 2 5 16 48 40
36 20 88 53 115 72 56 39 65 42 65 22z m-1163 -27 c25 -12 43 -28 43 -37 -1
-49 -20 -255 -24 -259 -2 -2 -13 0 -24 6 -14 7 -18 17 -14 36 3 19 -3 34 -21
53 -25 26 -26 30 -20 125 3 53 8 97 11 97 3 0 25 -9 49 -21z m-707 -4 c36 -9
111 -38 168 -66 81 -39 108 -58 132 -91 33 -45 33 -47 22 -66 -7 -10 -28 -4
-93 23 -125 54 -204 48 -300 -21 -48 -35 -99 -100 -99 -125 1 -9 5 -6 13 7 61
105 198 180 290 158 30 -7 29 -8 -25 -15 -208 -28 -337 -261 -236 -426 33 -55
37 -37 6 25 -26 50 -29 64 -24 113 9 96 60 183 134 230 62 39 70 37 22 -7 -22
-20 -40 -41 -40 -47 0 -6 17 5 38 24 55 52 68 60 108 69 60 14 68 2 21 -34
-28 -21 -54 -55 -77 -100 -33 -65 -35 -74 -35 -170 0 -106 11 -142 58 -193 11
-13 18 -23 15 -23 -16 0 -192 62 -228 80 -57 29 -118 86 -143 134 -29 57 -36
237 -13 355 9 46 16 99 16 118 0 29 5 36 33 48 42 19 156 18 237 0z m1474 9
c17 -6 21 -49 10 -92 l-7 -23 -11 23 c-6 13 -27 31 -46 41 l-35 17 48 -5 c35
-4 47 -2 47 8 0 7 -11 13 -27 12 -14 0 -28 6 -30 13 -5 13 24 16 51 6z m422
-51 c39 -53 39 -53 -17 -53 l-52 0 27 21 c39 31 25 34 -19 4 -23 -15 -52 -25
-74 -25 l-36 0 65 39 c36 22 70 40 76 40 5 1 19 -11 30 -26z m-464 -30 c10 -9
18 -26 17 -37 0 -21 0 -21 -9 1 -13 31 -45 46 -70 33 -62 -33 -44 -119 22
-106 18 3 27 2 23 -4 -10 -16 -71 -12 -85 5 -18 22 -5 86 21 108 27 21 57 22
81 0z m-12 -47 c0 -31 -22 -50 -38 -34 -13 13 -16 41 -5 51 3 4 15 7 25 7 12
0 18 -7 18 -24z m1063 17 c-34 -2 -93 -2 -130 0 -37 2 -9 3 62 3 72 0 102 -1
68 -3z m-260 -10 c-35 -2 -91 -2 -125 0 -35 2 -7 3 62 3 69 0 97 -1 63 -3z
m-460 -17 c-251 -10 -274 -13 -292 -31 -11 -11 -84 -202 -162 -424 -79 -222
-145 -398 -147 -393 -4 12 -1 18 156 457 114 320 132 366 144 380 10 11 186
20 413 22 131 0 110 -2 -112 -11z m787 -1 c0 -2 -35 -86 -78 -187 -44 -100
-112 -259 -152 -353 -40 -93 -80 -178 -89 -187 -17 -18 -73 -26 -706 -98 -143
-16 -279 -32 -302 -35 l-43 -6 41 113 c22 62 88 246 145 408 57 162 110 300
119 306 9 7 97 14 223 19 114 4 342 13 507 19 269 10 335 10 335 1z m-2045
-15 c-7 -11 -87 -54 -133 -71 -44 -17 -17 2 60 41 40 20 74 38 76 38 2 1 0 -3
-3 -8z m405 -35 c0 -31 -3 -35 -25 -35 -18 0 -25 5 -25 19 0 33 11 51 31 51
15 0 19 -7 19 -35z m98 3 c-2 -27 -8 -34 -30 -36 -23 -3 -26 0 -21 20 9 44 12
48 33 48 18 0 21 -5 18 -32z m102 3 c0 -21 -6 -32 -21 -36 -27 -9 -32 -2 -24
34 9 43 45 44 45 2z m-450 -40 c5 -11 10 -28 9 -38 0 -13 -4 -10 -13 10 -7 16
-19 33 -27 38 -11 7 -11 9 3 9 10 0 22 -9 28 -19z m-21 -28 c6 -14 9 -28 5
-32 -8 -8 -54 50 -48 60 8 14 31 -1 43 -28z m-375 6 l25 -12 -32 -21 c-32 -22
-88 -96 -81 -107 2 -4 -5 -26 -15 -50 -24 -53 -37 -144 -23 -152 5 -4 12 16
15 48 3 29 14 74 25 98 l20 45 84 -18 c45 -11 92 -22 104 -25 16 -5 29 4 58
39 45 55 82 76 133 76 l38 -1 -35 -28 c-19 -16 -32 -32 -29 -36 4 -3 19 5 34
19 29 27 36 30 70 26 30 -3 44 -20 17 -20 -115 0 -210 -206 -154 -333 13 -29
31 -52 47 -59 33 -15 15 -28 -38 -28 -64 0 -116 72 -118 162 0 37 -2 40 -10
20 -12 -30 3 -97 31 -134 l21 -28 -161 5 c-183 5 -178 3 -225 100 -28 56 -33
146 -14 234 13 61 66 138 116 168 43 26 61 28 97 12z m339 -28 c22 -38 22 -39
-9 -33 -28 5 -40 23 -30 47 8 22 20 18 39 -14z m-220 -1 c12 0 6 -10 -22 -35
-21 -19 -44 -49 -51 -66 -8 -20 -18 -28 -27 -24 -8 3 -32 8 -54 11 l-39 7 18
29 c9 17 32 43 51 60 29 25 40 29 70 24 20 -3 44 -6 54 -6z m83 -16 c19 -5 16
-11 -32 -59 -43 -42 -58 -52 -78 -48 -14 3 -26 9 -26 15 0 18 35 61 65 79 33
20 39 22 71 13z m239 -24 c22 -11 48 -17 60 -14 l20 6 -20 -21 -20 -20 -53 26
c-47 23 -53 33 -27 43 1 0 18 -9 40 -20z m-213 -20 c-22 -16 -51 -43 -63 -60
-13 -17 -31 -30 -43 -29 -17 0 -18 2 -5 7 9 4 29 22 45 41 27 33 80 71 98 71
5 0 -9 -13 -32 -30z m874 14 c-3 -9 -6 -21 -6 -27 0 -7 -4 -18 -9 -26 -7 -10
-18 -4 -50 28 l-41 41 56 0 c47 0 55 -3 50 -16z m-190 -25 c-62 -73 -4 -171
90 -153 l36 7 -7 -34 c-4 -19 -9 -35 -10 -37 -2 -2 -15 8 -31 23 -15 14 -64
44 -108 66 -65 33 -96 42 -155 48 -91 7 -112 31 -28 31 71 0 177 11 177 19 0
3 -52 5 -115 3 -111 -3 -117 -2 -146 22 l-30 25 118 4 c65 1 144 4 176 5 l59
2 -26 -31z m55 10 c-13 -5 -30 -17 -37 -27 -16 -20 -18 -78 -4 -87 7 -4 9 2 4
19 -7 31 18 76 42 76 13 0 12 -4 -5 -17 -22 -19 -29 -55 -16 -85 7 -19 -2 -23
-22 -10 -52 33 -15 142 47 141 8 0 4 -5 -9 -10z m-376 -19 c19 -8 19 -9 -3 -9
-12 -1 -35 -9 -49 -18 -21 -14 -25 -15 -19 -3 25 42 34 46 71 30z m-217 -57
c-40 -41 -72 -105 -83 -165 -9 -47 11 -131 36 -154 28 -26 23 -37 -10 -20 -76
40 -83 197 -13 300 22 32 81 76 101 76 3 0 -11 -17 -31 -37z m233 27 c31 -17
22 -30 -21 -30 -42 0 -52 12 -22 29 21 13 20 13 43 1z m-136 -9 c3 -5 -8 -17
-23 -27 -91 -53 -133 -234 -71 -300 l24 -26 -24 4 c-13 1 -33 16 -45 31 -31
42 -29 155 3 217 41 78 116 133 136 101z m588 -7 c12 -4 13 -12 4 -40 -12 -38
-22 -41 -55 -18 -47 33 -6 80 51 58z m-604 -47 c-35 -30 -59 -71 -58 -99 0
-23 0 -23 10 1 15 39 51 93 57 87 3 -3 -3 -15 -13 -26 -28 -31 -7 -24 25 9 34
34 80 44 149 35 l51 -7 -39 -28 c-53 -38 -73 -67 -58 -85 10 -11 17 -8 37 16
28 32 126 100 144 100 6 -1 -5 -9 -24 -19 -44 -24 -130 -99 -130 -114 0 -6 19
7 43 30 23 23 65 53 94 68 l52 25 83 -41 c45 -24 78 -44 71 -46 -6 -2 -33 10
-61 26 -58 36 -84 41 -57 11 10 -11 22 -20 27 -20 22 0 87 -54 106 -89 20 -35
21 -42 9 -77 l-14 -38 -35 67 c-20 37 -32 70 -27 73 18 10 10 25 -8 15 -11 -6
-24 -6 -36 1 -15 8 -16 12 -6 26 11 14 11 15 0 5 -11 -9 -22 -8 -53 4 -49 19
-61 10 -16 -12 58 -30 97 -64 124 -111 25 -43 26 -46 9 -64 -10 -11 -21 -20
-24 -20 -3 0 -18 21 -33 48 -34 61 -62 86 -120 104 -59 19 -68 12 -24 -18 31
-22 116 -135 116 -155 0 -23 -33 -20 -58 4 -22 23 -24 28 -11 43 12 15 12 16
-9 10 -22 -7 -31 7 -12 19 6 3 10 11 10 17 0 6 -9 3 -19 -6 -18 -17 -32 -11
-37 17 -1 4 -2 10 -3 15 -1 4 -5 1 -10 -6 -6 -10 -19 -8 -64 12 -30 13 -84 29
-119 34 -81 13 -118 28 -118 47 0 27 38 92 66 114 36 28 46 27 13 -2z m241
-13 c-14 -10 -44 -35 -67 -58 -24 -22 -43 -36 -43 -30 0 18 103 103 125 104 5
0 -2 -7 -15 -16z m292 -111 c18 -16 25 -53 10 -53 -8 0 -16 14 -40 63 -6 13
11 7 30 -10z m-527 -44 c107 -23 135 -32 135 -45 0 -7 10 -16 22 -20 39 -12
-86 -45 -156 -41 -71 4 -96 27 -96 89 0 37 2 40 23 34 12 -4 45 -11 72 -17z
m336 -30 c42 -45 28 -49 -17 -5 -20 20 -31 36 -25 36 7 0 26 -14 42 -31z
m-1071 -87 c30 -9 56 -16 57 -16 1 -1 7 -60 13 -131 6 -72 18 -156 26 -188 8
-32 14 -82 14 -111 l0 -53 -77 -7 c-132 -11 -150 -9 -157 17 -3 12 -6 70 -6
130 l0 107 34 0 c56 0 66 8 66 51 0 27 -5 42 -16 46 -17 6 -39 -11 -39 -30 0
-7 -10 -13 -22 -15 -23 -3 -23 -2 -23 122 l0 126 38 -16 c20 -9 62 -24 92 -32z
m958 9 c14 -9 -56 -22 -112 -20 l-31 1 35 13 c40 16 89 18 108 6z m252 -26 c0
-15 -6 -25 -14 -25 -24 0 -29 20 -10 35 25 19 24 19 24 -10z m-1536 -61 c3
-57 -5 -84 -26 -84 -6 0 -5 7 2 15 9 11 11 36 7 81 -3 40 -1 62 4 57 5 -5 11
-36 13 -69z m76 21 c0 -37 -12 -85 -21 -85 -5 0 -9 27 -9 60 0 49 3 58 15 54
8 -4 15 -16 15 -29z m525 10 c72 -2 152 -6 180 -10 l49 -8 -72 -28 c-84 -32
-149 -68 -176 -98 -25 -28 -12 -27 27 3 51 38 125 72 212 96 68 18 98 30 158
58 4 2 7 -3 7 -11 0 -10 -23 -20 -72 -32 -40 -10 -88 -26 -106 -36 -19 -11
-37 -17 -42 -14 -11 7 -85 -47 -148 -109 -53 -51 -82 -93 -82 -118 1 -7 8 1
17 17 21 41 86 108 158 163 l60 45 -41 -44 c-61 -65 -112 -135 -145 -201 -28
-54 -59 -77 -59 -42 0 8 -4 12 -10 9 -5 -3 -10 -13 -10 -21 0 -8 4 -13 8 -10
4 2 14 1 21 -3 10 -6 10 -17 2 -47 -12 -46 -17 -141 -8 -151 4 -3 7 9 7 29 0
56 22 149 34 145 7 -2 10 -37 8 -103 -4 -96 10 -188 30 -209 7 -7 8 -3 4 10
-24 84 -29 275 -7 275 28 -1 35 -23 36 -122 1 -86 6 -114 28 -172 27 -69 98
-176 117 -176 6 0 -6 21 -26 47 -47 61 -71 110 -89 180 -16 60 -21 213 -7 213
4 0 18 -7 30 -16 12 -8 58 -19 101 -23 43 -5 84 -11 90 -15 6 -4 11 -31 11
-59 0 -114 52 -245 124 -312 40 -37 42 -42 34 -73 -8 -31 -11 -32 -46 -27 -71
12 -177 47 -252 83 -143 70 -231 190 -281 382 -39 153 -8 333 78 448 13 17 20
32 14 32 -27 0 -111 -152 -111 -202 0 -56 -19 -26 -24 40 -4 37 -8 81 -10 98
-4 27 0 33 30 48 44 20 55 21 26 0 -12 -8 -22 -20 -22 -26 0 -7 12 0 28 14 15
13 42 35 60 47 18 13 31 25 28 28 -3 3 -18 -4 -35 -16 -16 -12 -33 -20 -38
-19 -4 2 -23 -3 -41 -11 -18 -8 -35 -12 -37 -9 -2 2 -7 23 -11 46 l-6 41 33
-10 c19 -6 93 -12 164 -14z m754 1 c19 -21 20 -24 6 -30 -9 -3 -33 -6 -53 -6
-45 0 -82 -9 -82 -20 0 -5 37 -21 83 -35 112 -37 177 -66 177 -77 0 -6 -8 -7
-17 -3 -10 3 -83 30 -163 60 -80 29 -179 66 -220 81 l-75 29 120 11 c190 18
198 17 224 -10z m-1387 -3 c6 -69 -14 -113 -22 -48 -3 28 -4 53 -2 58 6 14 22
7 24 -10z m1238 -91 c190 -71 186 -69 178 -78 -8 -7 -367 131 -382 147 -13 14
-31 20 204 -69z m-260 47 c-143 -28 -274 -154 -339 -325 -12 -31 -20 -41 -30
-35 -33 21 125 252 209 307 49 33 134 63 175 62 23 0 20 -2 -15 -9z m39 -24
c-53 -19 -122 -56 -116 -61 3 -3 18 1 34 10 17 8 52 23 79 34 49 18 50 18 114
-4 62 -21 64 -22 35 -29 -101 -24 -175 -58 -252 -117 -91 -70 -141 -173 -95
-196 9 -5 24 -7 32 -4 18 5 192 183 186 189 -2 2 -44 -36 -94 -86 -49 -50 -96
-91 -105 -91 -45 0 -14 94 48 149 108 94 283 163 361 142 31 -8 28 -12 -31
-30 -112 -35 -229 -159 -266 -282 -18 -58 -24 -69 -39 -64 -10 3 -44 8 -75 10
-87 6 -95 11 -95 53 0 52 35 115 104 190 34 36 51 60 40 54 -60 -32 -164 -182
-164 -237 0 -30 0 -30 -44 -8 -31 14 -35 20 -29 42 11 50 77 164 124 216 66
71 183 133 254 133 l30 1 -36 -14z m461 -5 c10 -6 1 -8 -29 -5 -24 2 -46 6
-49 9 -9 10 62 6 78 -4z m-1430 -65 c0 -29 45 -64 61 -48 7 7 25 5 54 -6 l43
-15 4 -121 c2 -66 3 -121 2 -123 -3 -8 -154 100 -177 127 -24 29 -27 40 -27
110 0 71 9 101 32 101 4 0 8 -11 8 -25z m263 -19 c-4 -21 -12 -25 -52 -31 -49
-7 -131 17 -131 37 0 6 7 7 18 3 9 -5 45 -10 78 -13 56 -4 63 -2 69 17 9 29
24 18 18 -13z m2337 -9 c19 -13 18 -15 -25 -20 -53 -8 -115 -32 -115 -46 0 -5
18 -1 39 10 22 10 63 21 93 25 50 6 56 4 100 -30 26 -20 52 -45 58 -56 9 -18
8 -18 -21 -8 -34 12 -118 6 -163 -11 -39 -15 -28 -23 15 -11 47 14 149 12 179
-3 34 -17 58 -70 77 -172 14 -78 14 -91 0 -151 -9 -36 -41 -116 -72 -179 l-55
-113 -42 -8 c-118 -21 -247 7 -372 80 -43 25 -44 27 -33 56 6 16 14 30 18 30
3 0 24 -13 46 -29 94 -68 200 -101 265 -82 31 9 30 9 -23 10 -31 1 -77 7 -103
15 -54 16 -176 93 -176 110 1 6 7 22 14 35 14 26 14 26 226 81 69 18 130 37
135 42 15 14 -55 1 -198 -39 -71 -19 -131 -33 -134 -30 -13 13 12 49 56 81 48
35 107 103 98 112 -2 2 -19 -13 -38 -34 -19 -21 -51 -51 -71 -66 l-38 -28 0
30 c0 24 12 41 58 83 69 64 150 106 241 124 51 10 58 13 30 14 -85 2 -199 -50
-285 -131 l-51 -48 -22 25 c-27 33 -51 41 -134 50 -63 7 -67 9 -62 29 18 62
73 154 124 206 59 60 62 61 186 75 l50 6 -40 -17 c-92 -39 -186 -123 -237
-212 -42 -74 -28 -77 16 -4 48 79 136 159 226 204 70 35 76 36 107 23 18 -8
42 -20 53 -28z m-369 -29 c-129 -126 -180 -289 -145 -464 9 -47 14 -87 11 -90
-10 -10 -40 46 -54 99 -35 137 4 296 106 425 37 46 71 67 116 71 5 1 -10 -18
-34 -41z m-937 26 c21 -8 21 -24 0 -24 -34 0 -145 -63 -199 -112 -65 -59 -107
-117 -131 -179 -22 -56 -24 -59 -51 -49 -21 8 -21 11 -9 57 36 134 142 255
262 298 41 15 102 19 128 9z m121 -4 c3 -5 15 -10 26 -10 10 0 19 -7 19 -15 0
-19 -2 -19 -44 2 -19 9 -33 20 -30 25 7 11 21 10 29 -2z m722 -40 c-48 -53
-90 -133 -108 -205 l-11 -45 -47 0 c-25 0 -75 -5 -109 -10 -90 -15 -106 -8
-99 43 12 87 111 237 157 237 20 0 18 -4 -17 -45 -42 -47 -123 -195 -123 -223
1 -9 18 17 38 58 77 154 128 210 199 218 l47 5 -60 -67 c-57 -63 -142 -201
-131 -213 3 -3 16 15 28 39 34 66 78 127 137 191 68 71 86 74 31 5 -40 -51
-71 -106 -102 -180 -27 -64 -3 -42 26 25 33 76 119 195 150 207 40 16 39 11
-6 -40z m-739 1 c9 -5 -2 -10 -33 -13 -115 -13 -272 -133 -330 -252 -19 -38
-33 -56 -46 -56 -26 0 -24 11 11 79 33 67 105 145 170 186 84 53 192 79 228
56z m426 -45 c-19 -29 -46 -79 -58 -110 l-23 -57 -13 30 c-14 36 -4 76 37 139
26 40 39 48 76 51 14 1 10 -9 -19 -53z m-57 26 c-8 -9 -27 -41 -40 -70 -25
-53 -25 -53 -40 -31 -14 19 -14 26 -2 57 8 19 15 36 15 39 0 6 43 22 64 22 18
1 18 0 3 -17z m-95 -31 c-9 -22 -21 -36 -27 -32 -5 3 -28 18 -50 31 l-40 25
50 6 c93 11 86 14 67 -30z m-171 14 c33 -9 74 -25 92 -36 18 -12 23 -18 12
-14 -151 54 -347 -12 -463 -157 -39 -49 -35 -65 5 -18 103 122 243 189 373
177 145 -13 220 -102 251 -297 15 -99 8 -116 -20 -42 -12 35 -25 61 -28 59 -2
-3 8 -40 23 -82 27 -75 27 -80 16 -169 -20 -164 -22 -167 -76 -203 -26 -18
-71 -40 -99 -48 -66 -19 -188 -19 -285 1 -98 20 -132 38 -132 68 0 23 1 23 38
10 42 -15 178 -19 186 -5 4 5 -24 9 -62 9 -37 -1 -86 3 -109 6 -40 7 -41 9
-36 39 2 18 1 56 -5 84 l-9 53 53 19 c29 11 94 27 146 36 51 9 98 21 103 27 7
7 1 8 -20 4 -16 -3 -70 -13 -118 -21 -49 -9 -105 -22 -124 -30 -20 -9 -38 -14
-40 -11 -2 2 -6 19 -9 38 -5 31 -1 39 50 91 65 66 96 84 180 103 l61 14 -55
-3 c-74 -5 -124 -30 -192 -98 -56 -57 -56 -57 -63 -32 -5 21 3 40 39 93 69
100 134 147 243 175 l58 15 -51 -3 c-28 -2 -73 -14 -100 -27 -54 -26 -149
-118 -179 -174 -21 -39 -32 -45 -41 -22 -3 8 9 36 26 61 42 61 32 70 -11 11
-31 -44 -33 -45 -51 -29 -10 9 -18 23 -18 32 0 30 84 145 138 188 29 24 48 43
43 43 -5 0 -32 -18 -59 -40 -50 -39 -93 -93 -126 -158 -25 -48 -31 -32 -8 20
26 59 122 161 186 198 53 30 141 58 185 59 13 1 50 -6 82 -14z m732 -224 c55
-13 83 -43 85 -90 2 -37 -1 -41 -45 -66 l-48 -26 25 28 c14 15 33 36 43 47 10
10 15 21 12 25 -4 3 -16 -5 -28 -19 -12 -14 -39 -46 -60 -70 l-39 -45 7 45 c3
25 17 69 30 99 29 62 30 68 10 51 -18 -15 -50 -100 -60 -160 -4 -24 -15 -50
-24 -57 -14 -10 -18 -7 -28 20 -12 34 -18 209 -6 220 9 10 81 8 126 -2z m-221
-90 c4 -67 12 -103 32 -146 30 -67 31 -75 11 -75 -21 0 -69 79 -85 137 -16 58
-35 84 -25 33 10 -52 50 -136 79 -165 l25 -24 -29 -24 c-24 -21 -90 -43 -213
-73 l-28 -6 6 48 c10 75 11 264 2 315 l-9 46 104 10 c56 5 108 11 114 11 7 1
13 -30 16 -87z m-1069 -75 c6 -92 33 -174 77 -235 43 -58 18 -51 -29 9 -52 66
-82 147 -88 242 -6 73 -5 77 14 72 17 -5 21 -17 26 -88z m62 -24 c0 -96 3
-113 28 -166 36 -77 34 -83 -8 -17 -37 59 -65 161 -65 240 0 46 2 51 23 51 21
0 22 -3 22 -108z m30 1 c0 -54 3 -111 8 -128 5 -22 5 -26 -3 -13 -18 30 -31
122 -24 180 4 32 9 58 13 58 3 0 6 -44 6 -97z m41 1 c-9 -26 -17 -59 -17 -73
-1 -14 -5 3 -9 39 -5 36 -6 78 -3 93 6 29 6 29 26 9 19 -19 19 -22 3 -68z
m1239 7 c-3 -12 -14 -21 -24 -21 -10 0 -34 -2 -52 -5 -31 -5 -28 -3 21 24 30
16 57 28 58 26 2 -2 1 -13 -3 -24z m-1219 -58 c-27 -57 -28 -48 -5 41 8 28 13
36 21 28 8 -8 4 -27 -16 -69z m44 -3 c0 -10 -5 -22 -10 -25 -6 -3 -19 -23 -30
-43 -25 -49 -25 -27 1 43 20 53 39 65 39 25z m1144 -10 c-12 -23 -19 -28 -32
-21 -9 4 -34 11 -56 15 -21 4 -36 9 -33 12 5 6 84 21 114 23 21 1 21 0 7 -29z
m-32 -38 c5 -5 4 -19 -2 -33 -11 -23 -16 -25 -73 -21 -34 2 -73 -1 -87 -6 -20
-8 -9 -10 47 -8 39 0 75 -3 79 -7 5 -5 -7 -37 -25 -73 -32 -62 -34 -64 -52
-48 -23 21 -25 7 -4 -23 9 -12 11 -24 6 -27 -5 -4 -17 -38 -26 -77 -9 -40 -24
-86 -33 -103 -9 -17 -19 -51 -22 -76 l-5 -45 -47 64 c-27 35 -48 56 -48 47 0
-8 20 -40 45 -71 l45 -55 -21 -30 c-19 -25 -20 -32 -9 -59 30 -74 191 -146
275 -123 25 7 17 10 -46 14 -83 7 -135 28 -187 76 -35 33 -42 71 -17 92 13 11
19 9 38 -7 12 -11 36 -28 52 -38 22 -12 16 -4 -21 31 -34 32 -50 55 -47 67 4
15 10 13 43 -16 57 -49 190 -110 190 -88 0 4 -17 13 -38 19 -51 15 -157 84
-177 116 -15 23 -15 27 9 74 14 28 30 72 36 99 17 76 18 78 38 61 80 -71 259
-83 407 -27 79 29 62 35 -21 7 -99 -33 -258 -32 -326 1 -69 33 -73 42 -48 91
l22 42 31 -30 c18 -17 52 -40 77 -51 54 -23 167 -40 156 -22 -4 6 -22 11 -40
11 -71 0 -195 57 -210 96 -3 9 1 28 9 44 l15 29 58 -33 c31 -19 92 -46 134
-61 68 -24 88 -27 160 -23 46 3 91 9 101 13 13 5 4 -21 -34 -101 -28 -60 -73
-163 -100 -229 -27 -65 -57 -128 -67 -138 -30 -33 -73 -49 -138 -50 -35 -1
-64 -5 -64 -9 0 -11 89 -10 129 2 l34 10 -29 -31 c-51 -54 -100 -73 -184 -73
-55 1 -89 7 -127 24 -58 25 -72 37 -78 70 -2 12 -24 43 -48 69 -24 26 -50 57
-56 70 -7 12 -15 20 -18 18 -8 -9 17 -50 57 -92 21 -22 41 -51 45 -64 6 -21 1
-19 -44 19 -28 23 -57 53 -66 66 -19 30 -19 106 0 164 8 25 24 79 36 120 12
41 29 93 37 114 13 34 17 37 23 20 7 -16 8 -15 6 6 -4 62 14 105 71 166 l57
62 54 -9 c30 -4 58 -12 63 -17z m-1128 -68 c-44 -40 -44 -54 0 -21 l34 26 7
-45 c3 -24 3 -69 0 -99 -7 -52 -16 -67 -30 -45 -3 6 -11 10 -17 10 -6 0 -2
-10 10 -23 24 -25 32 -92 10 -85 -6 2 -29 24 -50 49 l-37 44 15 60 c8 33 17
75 19 93 2 18 16 54 31 80 l28 47 7 -30 c5 -25 1 -35 -27 -61z m609 -226 c-6
-47 -66 -92 -155 -114 -110 -29 -343 -6 -400 38 -11 9 -15 23 -11 44 l5 31 47
-17 c67 -26 202 -44 280 -37 76 6 163 37 206 72 16 13 30 23 31 22 0 -1 -1
-18 -3 -39z m-628 -48 l33 -35 5 -140 c3 -77 9 -156 12 -175 l7 -35 -35 34
c-32 31 -43 49 -61 105 -4 10 -9 16 -12 13 -13 -13 22 -84 63 -128 36 -39 44
-53 41 -79 l-3 -32 -27 22 c-16 12 -28 17 -28 11 0 -5 13 -19 29 -30 22 -16
27 -26 23 -46 -2 -14 -9 -25 -15 -25 -5 0 -3 -8 6 -18 10 -10 17 -25 17 -33 0
-8 11 -40 24 -71 13 -32 19 -58 14 -58 -6 0 -30 19 -53 43 -48 48 -75 119 -75
200 0 27 -7 74 -16 105 -11 37 -15 75 -11 115 3 33 1 88 -5 124 -12 77 7 221
24 187 6 -10 25 -35 43 -54z m613 -60 c-5 -28 -23 -81 -39 -118 -71 -155 -107
-262 -90 -262 5 0 12 12 15 28 4 15 26 74 49 132 l42 104 8 -124 c16 -253 -24
-360 -163 -432 -88 -45 -291 -32 -320 22 -16 30 -12 31 26 8 44 -26 152 -35
223 -18 47 11 139 66 128 76 -3 3 -26 -9 -52 -25 -66 -42 -142 -56 -218 -41
-88 17 -124 37 -141 79 -8 20 -13 37 -11 39 1 1 31 -11 67 -28 64 -30 168 -54
168 -40 0 4 -18 10 -40 14 -54 8 -162 52 -187 76 -14 12 -19 27 -16 44 l5 25
37 -18 c34 -17 92 -33 173 -46 45 -7 150 10 193 32 40 21 74 52 92 86 23 45
10 41 -24 -7 -18 -26 -48 -52 -75 -65 -91 -44 -247 -37 -349 14 -42 22 -45 26
-41 55 2 17 7 29 11 27 3 -1 28 -13 54 -25 79 -36 88 -25 11 13 -71 34 -83 49
-84 98 0 18 2 18 33 -3 44 -29 157 -83 163 -78 2 3 -28 21 -68 41 -40 20 -88
49 -105 66 l-33 30 0 120 0 120 43 -19 c64 -29 168 -43 270 -37 109 6 149 17
208 57 24 16 45 30 45 30 1 0 -3 -23 -8 -50z m353 -386 c27 -13 55 -24 64 -24
24 0 18 -18 -7 -22 -36 -5 -31 -43 5 -43 21 1 27 -4 27 -20 0 -16 -6 -21 -22
-21 -14 1 -24 -6 -26 -18 -5 -22 17 -39 33 -26 7 6 17 2 28 -10 16 -19 16 -20
-3 -20 -13 0 -20 -7 -20 -20 0 -25 25 -37 44 -21 22 18 29 -4 11 -32 -8 -13
-12 -27 -8 -30 10 -11 53 -8 53 3 0 6 5 10 10 10 15 0 12 -21 -7 -42 -15 -17
-16 -20 0 -35 15 -16 18 -15 38 3 21 19 21 19 18 -5 -2 -13 -12 -29 -22 -35
-16 -9 -27 -2 -77 52 -31 35 -74 91 -94 125 -35 59 -37 66 -34 139 2 48 -1 77
-7 76 -15 -3 -116 51 -142 75 -13 11 -23 15 -23 9 0 -15 55 -54 108 -77 l42
-18 0 -58 c0 -67 -16 -89 -64 -89 -48 0 -98 38 -116 87 -13 39 -12 47 8 111
12 38 22 76 22 86 0 13 15 4 56 -34 31 -28 79 -62 105 -76z m242 -46 c-2 -5
-35 -8 -74 -8 -38 0 -69 3 -69 8 0 4 33 7 74 7 41 0 72 -3 69 -7z m-412 -104
c13 -13 40 -30 61 -36 32 -9 45 -9 73 5 28 13 35 14 35 3 0 -22 73 -127 132
-192 53 -57 55 -61 37 -72 -18 -11 -49 -68 -63 -115 -8 -24 -29 -12 -109 62
-34 31 -73 65 -86 74 -18 12 -25 27 -28 64 -5 60 -33 122 -83 189 -37 49 -39
55 -28 84 l11 32 13 -37 c7 -20 23 -48 35 -61z m384 72 c11 -2 -10 -4 -47 -5
-38 0 -68 2 -68 7 0 7 67 6 115 -2z m14 -30 c-7 -8 -118 -10 -126 -3 -3 4 24
7 62 7 38 0 66 -2 64 -4z m-423 -92 c35 -54 74 -177 62 -190 -9 -9 -144 71
-156 93 -17 29 27 171 49 158 6 -4 26 -31 45 -61z m389 55 c-55 -11 -85 -11
-85 1 0 6 27 10 63 9 59 -1 60 -2 22 -10z m43 -24 c-7 -6 -122 -16 -116 -10 8
8 100 23 111 17 5 -2 7 -5 5 -7z m-33 -35 c-16 -4 -39 -8 -50 -9 -16 -1 -17 1
-5 9 8 5 31 9 50 9 l35 -1 -30 -8z m61 -19 c-5 -8 -75 -25 -91 -22 -14 3 -3
17 17 23 35 9 80 9 74 -1z m19 -31 c3 -5 -3 -10 -13 -10 -11 0 -35 -3 -53 -6
-24 -5 -31 -3 -24 4 9 9 34 16 72 21 6 0 15 -3 18 -9z m15 -30 c0 -5 -4 -10
-9 -10 -5 0 -23 -3 -40 -6 -19 -4 -31 -2 -31 4 0 10 23 18 63 21 9 0 17 -3 17
-9z m-1074 -102 c6 -35 15 -76 19 -92 7 -25 6 -28 -9 -23 -10 4 -25 7 -33 7
-9 0 -33 18 -55 40 -21 23 -38 36 -38 29 0 -25 68 -78 107 -85 39 -6 41 -8 87
-105 27 -54 60 -111 75 -126 l26 -28 -40 -30 c-26 -20 -46 -47 -56 -75 -15
-40 -17 -42 -28 -25 -6 11 -34 58 -61 105 -41 67 -53 98 -61 154 -5 39 -20 94
-34 123 -21 47 -23 62 -18 141 l6 88 51 -17 51 -18 11 -63z m623 -21 c36 -18
96 -60 133 -95 116 -106 220 -161 345 -183 71 -12 157 -7 179 12 11 9 14 8 14
-4 0 -41 -83 -73 -159 -62 -147 21 -241 63 -353 158 -50 43 -108 81 -170 110
-116 55 -148 83 -148 131 l0 36 47 -36 c25 -19 76 -50 112 -67z m486 93 c-3
-5 -17 -10 -31 -10 -14 0 -34 -5 -44 -10 -11 -6 -21 -6 -24 -1 -4 5 6 14 21
19 37 14 86 15 78 2z m-835 -9 c0 -11 -29 -18 -105 -27 -71 -8 -68 3 7 21 65
16 98 18 98 6z m-230 -26 c-19 -23 -4 -48 24 -43 18 4 26 0 29 -14 4 -14 0
-18 -19 -18 -28 0 -33 -30 -9 -50 12 -10 18 -10 30 0 8 7 15 10 15 7 0 -3 3
-12 6 -21 4 -12 0 -16 -15 -16 -28 0 -38 -27 -18 -48 15 -14 18 -14 36 2 18
17 20 17 29 0 8 -14 6 -20 -11 -29 -32 -16 -29 -49 6 -53 15 -2 27 1 27 7 0
19 17 12 23 -8 3 -14 -2 -21 -20 -26 -18 -4 -23 -11 -21 -28 4 -27 30 -33 52
-12 15 15 16 15 16 -7 0 -34 -15 -51 -37 -44 -41 13 -145 230 -168 348 l-13
68 25 0 c21 0 23 -2 13 -15z m1097 -25 c120 -76 176 -162 157 -240 -13 -50
-42 -62 -144 -57 -101 5 -252 58 -258 91 -8 41 29 106 84 147 31 22 54 47 54
58 0 41 42 42 107 1z m-862 10 c3 -5 5 -10 3 -10 -2 0 -40 -6 -85 -14 -69 -11
-83 -11 -87 0 -4 10 5 14 32 15 20 1 51 5 67 9 44 11 63 11 70 0z m5 -38 c0
-7 -120 -32 -157 -32 -34 0 1 15 60 26 80 15 97 16 97 6z m57 -27 c3 -9 3 -19
-1 -22 -8 -9 -37 18 -30 28 8 14 24 11 31 -6z m-47 -9 c0 -8 -21 -18 -57 -25
-32 -6 -68 -14 -80 -17 -17 -5 -23 -2 -23 9 0 11 17 19 58 27 31 6 62 13 67
15 22 8 35 4 35 -9z m5 -44 c-12 -11 -146 -35 -153 -28 -5 6 4 10 58 25 44 12
107 14 95 3z m-397 -87 c6 -22 13 -60 16 -84 6 -39 5 -43 -9 -31 -8 7 -24 27
-36 46 -17 28 -19 43 -14 89 7 49 9 54 20 38 7 -10 18 -36 23 -58z m419 49 c3
-9 -104 -34 -146 -34 -24 0 -9 19 22 29 68 21 118 23 124 5z m11 -39 c-2 -3
-29 -9 -59 -15 -30 -6 -62 -13 -71 -16 -10 -3 -18 -1 -18 5 0 6 15 15 33 20
34 10 124 15 115 6z m22 -34 c0 -10 -129 -43 -141 -35 -19 12 -7 23 34 32 55
13 107 14 107 3z m-15 -46 c-33 -6 -73 -17 -88 -24 -23 -9 -28 -8 -25 1 6 17
74 37 128 36 l45 0 -60 -13z m-339 -199 c46 -87 92 -133 174 -173 143 -70 301
-62 382 19 l21 21 -6 -33 c-4 -18 -13 -40 -20 -48 -22 -28 -98 -54 -172 -59
-93 -7 -188 20 -267 76 -46 34 -63 55 -102 128 -29 56 -60 100 -84 120 -41 33
-72 86 -72 123 0 32 101 -88 146 -174z m401 154 c14 -18 34 -30 48 -30 13 0
31 -8 41 -17 29 -29 77 -142 78 -183 3 -138 -277 -170 -442 -50 -37 27 -40 31
-33 63 12 52 24 68 87 112 48 33 60 47 64 75 4 30 10 36 45 46 64 20 84 17
112 -16z m57 4 l19 -26 -24 7 c-45 14 -67 45 -31 45 9 0 25 -12 36 -26z"/>
    <path d="M2440 7540 c0 -5 8 -10 18 -10 30 -1 97 -36 127 -68 17 -18 34 -32
40 -32 5 0 -11 20 -35 45 -31 31 -60 50 -94 60 -59 18 -56 18 -56 5z"/>
    <path d="M2305 7184 c-20 -20 -16 -53 8 -68 24 -15 51 4 55 39 5 42 -32 59
-63 29z m50 -29 c0 -21 -31 -33 -46 -18 -5 5 -7 17 -3 27 9 24 49 17 49 -9z"/>
    <path d="M2282 7068 c-17 -17 -15 -53 3 -68 12 -10 20 -9 40 4 38 25 28 76
-15 76 -9 0 -21 -5 -28 -12z m48 -28 c0 -23 -26 -38 -41 -23 -14 14 0 43 22
43 12 0 19 -7 19 -20z"/>
    <path d="M3219 7106 c-9 -20 -9 -29 1 -41 27 -33 75 -7 68 37 -5 35 -54 38
-69 4z m51 -15 c0 -11 -5 -23 -11 -27 -15 -9 -33 12 -26 30 9 23 37 20 37 -3z"/>
    <path d="M3200 7006 c-20 -26 -8 -61 22 -64 22 -3 29 2 34 22 3 14 4 33 0 41
-7 19 -40 19 -56 1z m40 -24 c0 -10 -3 -22 -7 -25 -10 -11 -32 13 -26 29 8 20
33 17 33 -4z"/>
    <path d="M1417 6798 c-25 -20 -47 -82 -47 -136 0 -120 93 -80 106 45 7 72 -22
118 -59 91z m39 -34 c9 -36 -1 -100 -22 -132 l-17 -26 -10 22 c-7 15 -7 41 2
80 6 31 12 63 13 70 2 22 27 13 34 -14z"/>
    <path d="M1365 6484 c-12 -13 -15 -33 -13 -98 3 -80 3 -81 30 -84 36 -4 48 25
48 113 0 53 -3 66 -19 75 -25 13 -27 13 -46 -6z m43 -98 c-4 -68 -10 -82 -27
-71 -16 9 -14 142 2 148 23 8 29 -11 25 -77z"/>
    <path d="M1844 6198 c62 -87 110 -201 122 -290 4 -27 10 -48 15 -48 11 0 11 3
-5 80 -8 36 -26 92 -40 125 -30 67 -86 155 -100 155 -5 0 -1 -10 8 -22z"/>
    <path d="M1852 6133 c12 -21 38 -65 56 -98 18 -33 30 -49 27 -35 -9 35 -87
170 -98 170 -5 0 2 -17 15 -37z"/>
    <path d="M3233 6260 c-2 -37 -12 -85 -27 -122 -32 -80 -24 -89 10 -13 27 58
46 195 28 195 -5 0 -10 -27 -11 -60z"/>
    <path d="M3351 6053 c-2 -22 -100 -120 -145 -144 -52 -27 -61 -43 -16 -27 57
19 178 143 167 171 -4 8 -6 9 -6 0z"/>
    <path d="M2515 5967 c-14 -91 -13 -92 97 -95 111 -3 114 -1 119 83 l3 50 -106
3 -107 3 -6 -44z m201 -8 c-3 -17 -6 -40 -6 -50 0 -17 -9 -19 -90 -19 l-90 0
0 43 c0 24 3 47 7 50 3 4 47 7 96 7 l90 0 -7 -31z"/>
    <path d="M2816 6048 c-4 -24 -7 -68 -9 -98 l-2 -55 79 -3 c44 -2 83 1 87 5 4
4 11 50 14 101 l8 92 -86 0 -86 0 -5 -42z m152 3 c2 -14 1 -53 -3 -87 l-6 -63
-71 0 -70 0 7 77 c4 42 12 83 18 90 7 8 29 12 66 10 51 -3 56 -5 59 -27z"/>
    <path d="M1400 5863 c-53 -10 -36 -18 40 -18 43 0 76 3 72 7 -10 10 -82 17
-112 11z"/>
    <path d="M1630 5837 c0 -3 37 -23 83 -45 45 -22 101 -57 125 -77 23 -20 42
-32 42 -27 0 18 -78 78 -142 109 -67 32 -108 47 -108 40z"/>
    <path d="M1440 5820 c-11 -8 1 -10 43 -8 31 1 57 5 57 10 0 11 -82 10 -100 -2z"/>
    <path d="M1443 5781 c-51 -18 -88 -40 -79 -48 2 -3 19 3 37 13 18 9 56 25 83
35 28 9 42 18 31 18 -11 0 -43 -8 -72 -18z"/>
    <path d="M1573 5769 c-34 -4 -85 -19 -115 -33 -53 -25 -138 -97 -138 -118 0
-6 22 10 49 35 61 57 112 83 193 98 50 9 76 9 111 0 58 -14 78 -14 52 1 -31
18 -85 24 -152 17z"/>
    <path d="M1495 5712 c-72 -44 -152 -177 -143 -236 2 -13 13 8 26 52 19 61 32
82 75 125 29 29 61 57 72 64 11 6 16 12 10 12 -5 1 -23 -7 -40 -17z"/>
    <path d="M3522 5470 c-12 -12 -22 -27 -22 -35 0 -8 -13 -15 -32 -17 -42 -4
-73 -46 -72 -98 2 -55 16 -68 74 -68 43 0 54 4 75 30 20 24 23 33 14 44 -13
16 2 64 21 64 19 0 10 20 -14 32 -23 10 -24 12 -10 33 13 20 10 35 -6 35 -3 0
-16 -9 -28 -20z m28 -87 c-15 -19 -19 -35 -15 -55 8 -36 -9 -59 -44 -57 -14 1
-34 -2 -43 -6 -40 -17 -48 100 -9 127 10 7 44 14 75 15 l57 3 -21 -27z"/>
    <path d="M1691 5463 c-26 -91 -5 -244 40 -295 23 -26 22 -22 -9 44 -30 62 -39
177 -19 241 8 26 11 47 6 47 -4 0 -13 -17 -18 -37z"/>
    <path d="M2071 5416 c-24 -29 -35 -120 -22 -180 7 -31 17 -56 21 -56 6 0 5 11
0 26 -15 38 -12 140 5 181 17 39 15 52 -4 29z"/>
    <path d="M1796 5404 c-3 -9 -6 -43 -6 -77 0 -68 23 -129 59 -161 28 -26 27
-11 -3 25 -30 36 -50 124 -41 184 7 45 3 59 -9 29z"/>
    <path d="M2101 4528 c-1 -46 41 -180 71 -229 25 -41 84 -109 93 -109 4 0 -9
19 -28 43 -50 61 -86 139 -112 241 -18 71 -24 83 -24 54z"/>
    <path d="M3905 4713 c-72 -16 -55 -25 23 -13 38 7 77 7 102 1 39 -9 56 1 24
13 -17 7 -118 6 -149 -1z"/>
    <path d="M3818 4436 c-69 -19 -106 -56 -55 -56 16 0 18 3 8 9 -18 11 8 26 62
36 20 4 40 11 43 16 7 11 0 11 -58 -5z"/>
    <path d="M3750 4351 c0 -5 21 -20 47 -32 53 -25 205 -38 233 -20 24 17 7 21
-40 9 -51 -13 -140 1 -202 33 -21 11 -38 15 -38 10z"/>
    <path d="M2649 4647 c-63 -26 -145 -82 -154 -105 -4 -11 -2 -12 7 -5 76 60
117 85 166 99 112 33 111 32 72 33 -19 0 -60 -10 -91 -22z"/>
    <path d="M2890 4457 c0 -8 132 -88 137 -83 3 3 -20 21 -51 41 -58 37 -86 51
-86 42z"/>
    <path d="M2554 4291 c4 -6 25 -11 46 -11 54 0 58 -16 8 -32 -57 -19 -61 -44
-11 -64 30 -13 61 -15 143 -12 120 6 195 29 250 79 36 32 26 28 -42 -15 -47
-30 -142 -50 -233 -49 -121 0 -189 29 -108 46 43 9 71 33 56 48 -16 16 -119
26 -109 10z"/>
    <path d="M2963 4177 c-60 -77 -126 -110 -230 -115 -84 -5 -107 -22 -30 -22 61
0 151 26 197 56 38 25 117 120 108 129 -2 2 -22 -19 -45 -48z"/>
    <path d="M3271 4075 c-1 -54 41 -125 74 -125 6 1 3 6 -6 13 -27 21 -49 63 -58
108 l-9 44 -1 -40z"/>
    <path d="M3860 4009 c-95 -59 -267 -75 -366 -34 -20 8 -39 13 -42 10 -10 -10
71 -36 134 -44 111 -13 236 16 309 72 36 28 11 25 -35 -4z"/>
    <path d="M3410 3902 c0 -15 139 -113 196 -139 65 -29 143 -29 172 2 16 16 16
17 -5 6 -31 -16 -117 -14 -160 4 -20 8 -74 42 -120 75 -45 33 -83 56 -83 52z"/>
    <path d="M2868 3829 c-59 -60 -104 -109 -101 -109 23 0 213 188 213 212 0 11
5 16 -112 -103z"/>
    <path d="M7870 5493 c-125 -21 -241 -91 -317 -189 -13 -18 -36 -34 -53 -38
-34 -6 -165 -98 -174 -122 -11 -30 -4 -99 17 -174 33 -111 36 -115 100 -114
l55 0 12 -58 c7 -32 27 -87 45 -123 l33 -64 -22 -44 c-13 -27 -34 -51 -55 -63
-51 -28 -165 -158 -199 -227 -66 -135 -114 -267 -107 -298 5 -22 0 -40 -22
-74 -15 -25 -35 -45 -43 -45 -8 0 -142 5 -297 10 -155 5 -289 7 -298 4 -42
-17 -38 -39 34 -207 143 -332 222 -502 242 -519 20 -17 19 -18 -28 -42 -153
-78 -232 -222 -221 -401 5 -70 11 -86 118 -302 62 -125 132 -272 156 -326 52
-119 85 -161 158 -207 44 -28 58 -43 66 -73 6 -21 8 -48 4 -60 -16 -51 -115
-197 -167 -246 -66 -62 -79 -96 -73 -180 6 -80 23 -105 80 -120 106 -26 278
31 397 133 44 37 110 80 161 104 95 46 128 78 128 126 0 40 -39 158 -84 258
-50 110 -67 173 -56 204 6 14 10 39 10 55 0 33 -53 213 -94 322 -23 61 -24 68
-9 63 10 -3 56 -14 102 -25 46 -11 85 -22 88 -24 2 -2 8 -44 13 -93 6 -49 13
-100 17 -114 4 -14 8 -110 8 -215 0 -186 1 -191 27 -245 15 -30 37 -67 49 -82
21 -25 21 -30 10 -103 -15 -102 -55 -194 -136 -315 -72 -107 -95 -166 -95
-243 0 -42 5 -54 33 -82 43 -43 102 -60 203 -60 70 1 89 5 146 33 82 40 130
87 170 165 17 34 48 77 70 96 21 18 45 46 53 62 19 36 19 147 0 264 -22 133
-20 147 21 196 46 55 52 72 60 161 3 39 10 82 15 95 5 14 10 70 10 126 1 56 2
127 3 157 0 30 -2 70 -6 88 -7 32 -7 32 31 32 55 0 182 35 256 70 144 69 244
208 281 390 l18 86 96 -4 c110 -5 129 2 238 82 79 58 97 95 89 183 -5 47 -3
64 8 73 8 7 15 18 15 24 0 6 23 25 51 41 68 40 172 151 208 223 44 88 61 157
67 277 12 220 -39 396 -148 511 -54 58 -176 134 -215 134 -39 0 -60 53 -68
170 -16 241 -38 314 -123 399 -54 54 -96 71 -177 71 -48 0 -52 2 -70 37 -30
55 -63 64 -197 57 l-113 -7 -18 83 c-15 65 -26 90 -48 113 -27 27 -35 29 -79
25 -37 -4 -53 -1 -62 10 -25 29 -148 102 -191 112 -41 9 -158 11 -207 3z m184
-22 c3 -5 -4 -11 -17 -15 -36 -9 -116 -96 -147 -161 -16 -33 -34 -87 -41 -121
l-12 -61 -116 -6 c-64 -3 -131 -11 -149 -17 -18 -7 -35 -10 -37 -8 -3 2 0 33
6 67 11 68 52 159 94 209 31 37 133 90 208 108 61 14 203 18 211 5z m24 -30
c-56 -22 -104 -55 -119 -83 -7 -13 7 -5 41 21 29 23 64 44 78 47 15 3 33 8 41
10 19 6 95 -34 126 -66 l26 -27 -39 -25 c-63 -42 -102 -87 -102 -116 0 -15 7
-51 14 -80 15 -54 15 -54 -7 -47 -54 15 -177 34 -229 35 l-57 0 6 33 c20 109
86 237 141 273 49 32 77 44 102 43 19 0 14 -4 -22 -18z m316 -114 c20 -20 38
-77 61 -193 6 -25 -46 -97 -97 -136 l-34 -26 -13 75 c-13 80 -35 159 -50 182
-5 8 -26 17 -46 20 l-37 6 68 48 c77 53 113 59 148 24z m-850 -99 c-8 -24 -18
-69 -21 -100 -4 -38 -12 -63 -25 -75 -19 -17 -19 -17 -14 7 3 14 10 49 16 78
9 48 44 132 55 132 2 0 -3 -19 -11 -42z m-50 -35 c-13 -32 -24 -69 -24 -83 0
-14 -5 -32 -10 -40 -8 -12 -10 -11 -10 8 0 43 -28 82 -58 82 -23 0 -19 5 38
44 36 25 70 45 76 45 7 1 3 -21 -12 -56z m757 15 c6 -11 9 -21 7 -23 -2 -2
-25 -5 -53 -6 -42 -3 -50 -1 -53 15 -2 10 0 22 6 28 6 6 8 0 4 -18 -3 -19 -1
-25 7 -20 6 4 9 11 6 16 -7 12 12 23 26 14 8 -4 7 -9 -2 -15 -10 -6 -8 -9 9
-9 24 0 29 19 10 39 -11 10 -9 11 5 5 10 -3 22 -15 28 -26z m18 -65 c5 -10 15
-53 22 -96 14 -85 10 -97 -37 -97 -33 0 -52 30 -73 115 -23 89 -20 95 41 95
25 0 40 -6 47 -17z m-861 -5 c21 -21 15 -48 -10 -47 -17 1 -19 2 -5 6 24 6 21
32 -5 43 -14 5 -17 9 -7 9 8 1 20 -4 27 -11z m1320 -11 c13 -6 32 -26 43 -43
l19 -31 -59 -16 -60 -15 -11 34 c-16 48 -40 58 -121 50 -59 -6 -68 -5 -63 8 4
11 25 16 82 19 43 1 93 4 112 5 19 1 45 -4 58 -11z m-671 -52 c74 -14 113 -29
113 -44 0 -4 -26 1 -57 12 -47 16 -93 21 -234 25 -191 5 -288 -6 -352 -39 -37
-19 -38 -19 -27 0 33 63 335 87 557 46z m581 -10 c20 -45 15 -55 -25 -55 -21
0 -68 -3 -104 -6 -64 -6 -67 -6 -74 17 -6 18 -2 28 19 46 23 19 38 23 100 23
68 0 74 -2 84 -25z m-1187 -61 c20 -78 23 -114 10 -114 -5 0 -7 9 -4 20 11 40
-45 69 -65 34 -12 -22 -19 -10 -36 64 l-14 61 37 4 c54 5 54 6 72 -69z m602
31 c112 -20 124 -30 132 -112 4 -37 14 -82 22 -100 13 -29 13 -34 -13 -84 -40
-80 -136 -171 -209 -198 -90 -34 -195 -33 -268 2 -124 61 -196 201 -197 378 0
83 12 99 86 115 80 17 350 17 447 -1z m880 -6 c47 -13 109 -65 87 -73 -8 -3
-45 -14 -82 -24 l-67 -20 -23 25 c-29 32 -94 62 -132 63 -39 0 -28 9 31 25 60
16 136 18 186 4z m-513 -51 c-1 -24 -9 -58 -19 -77 -18 -34 -19 -34 -30 -13
-6 12 -16 22 -22 22 -5 0 -2 -14 7 -31 13 -26 14 -33 2 -40 -21 -14 -37 -10
-48 10 -22 42 -12 71 43 121 28 27 55 49 60 50 4 0 7 -19 7 -42z m331 1 c115
-39 175 -154 198 -387 5 -48 8 -88 6 -90 -4 -4 -105 70 -124 91 -83 94 -155
138 -228 140 -53 0 -72 21 -104 108 -12 32 -30 66 -40 75 -11 9 -19 27 -19 40
0 19 6 23 38 27 84 9 241 6 273 -4z m-1311 -44 c10 -12 9 -16 -5 -21 -19 -8
-40 9 -31 25 10 15 21 14 36 -4z m782 -45 c3 -28 13 -59 22 -69 16 -18 16 -21
-5 -63 -37 -72 -95 -153 -131 -180 -77 -59 -138 -81 -228 -84 l-85 -2 80 7
c148 13 263 93 335 233 32 62 34 70 21 90 -16 25 -32 118 -20 118 3 0 9 -23
11 -50z m833 31 c0 -10 -25 -22 -72 -34 -62 -17 -75 -18 -89 -6 -15 12 -9 16
52 36 76 25 109 26 109 4z m-791 -91 c4 -8 0 -6 -8 4 -10 12 -15 37 -15 60 l2
41 6 -45 c4 -25 10 -52 15 -60z m38 -1 c9 -6 10 -9 1 -9 -19 0 -33 35 -32 77
1 37 2 36 10 -11 4 -27 14 -53 21 -57z m164 2 c-14 -88 -173 -246 -327 -325
-107 -55 -215 -80 -313 -74 -62 4 -146 31 -134 44 3 2 20 -4 39 -13 26 -14 58
-18 134 -18 116 1 200 26 313 93 155 93 225 184 257 337 6 29 7 29 22 10 9
-13 13 -32 9 -54z m-56 4 c-13 -56 -28 -87 -68 -137 l-29 -38 4 48 c4 36 12
53 34 72 15 14 35 44 45 68 21 54 28 49 14 -13z m684 27 c19 -38 25 -71 40
-252 8 -90 10 -164 5 -177 -11 -28 -1 -82 18 -105 8 -9 13 -21 10 -25 -3 -5 3
-166 13 -358 30 -567 31 -583 20 -590 -13 -8 -13 -142 0 -150 6 -3 10 -41 10
-84 0 -63 -4 -83 -20 -104 -18 -22 -149 -117 -163 -117 -2 0 0 20 5 45 5 25 8
74 6 109 l-3 64 40 13 c22 7 49 11 61 10 11 -1 28 7 39 19 22 24 9 27 -17 3
-14 -13 -21 -14 -27 -5 -5 9 -20 6 -59 -10 -42 -18 -58 -20 -89 -12 -30 7 -38
14 -40 34 -1 14 0 19 3 12 11 -24 51 -32 106 -22 29 6 57 15 63 21 10 12 0 10
-62 -7 -23 -6 -23 -6 -22 107 l0 114 48 37 c75 57 95 107 99 254 3 82 -1 147
-12 206 -9 48 -14 104 -10 125 13 81 -63 302 -141 414 -37 53 -45 72 -45 110
0 60 -28 225 -46 268 -8 19 -13 36 -10 38 6 6 129 41 148 42 10 1 24 -12 32
-27z m-743 -61 c-6 -10 -24 -24 -41 -30 -27 -9 -31 -8 -28 6 2 13 37 32 76 42
1 1 -2 -8 -7 -18z m129 -46 c-36 -109 -290 -293 -470 -340 -90 -24 -193 -25
-253 -1 -62 23 -56 30 8 10 128 -40 341 21 510 146 30 22 58 40 63 40 15 0 53
46 45 55 -5 4 -3 5 4 2 16 -10 71 59 85 107 7 21 14 34 16 28 2 -7 -2 -27 -8
-47z m-225 -20 c-17 -39 -6 -85 20 -85 8 0 15 -4 15 -8 0 -11 -149 -108 -202
-132 -143 -63 -322 -67 -390 -9 -21 17 -18 17 22 -3 37 -19 61 -23 140 -23 86
0 101 3 163 32 84 40 164 118 206 201 34 67 49 83 26 27z m413 -38 c21 -12 19
-14 -46 -40 -82 -32 -80 -32 -111 -8 l-25 19 35 21 c39 24 111 28 147 8z
m-160 -64 c15 -9 29 -18 31 -20 2 -1 -10 -14 -27 -28 -23 -19 -95 -109 -107
-132 0 -1 -20 3 -43 10 -42 13 -42 13 -25 37 29 44 124 150 134 150 5 0 22 -8
37 -17z m112 4 c0 -2 -22 -19 -50 -38 -27 -19 -50 -37 -50 -41 0 -14 11 -9 44
19 65 55 182 83 214 51 21 -21 13 -27 -18 -11 -26 12 -39 13 -80 3 -103 -25
-192 -110 -259 -250 -30 -62 -37 -89 -39 -152 -4 -76 -5 -78 -29 -78 -25 0
-26 2 -20 53 9 81 58 179 167 332 12 17 0 8 -26 -20 -50 -53 -50 -45 0 19 33
41 146 129 146 113z m98 -36 c-101 -20 -213 -152 -248 -294 -19 -73 -8 -199
24 -276 15 -35 25 -65 23 -68 -8 -7 -55 60 -77 111 -38 85 -27 223 25 326 67
132 166 211 260 208 28 0 27 -1 -7 -7z m-1089 -25 c12 -11 15 -30 13 -85 -3
-68 -4 -70 -34 -80 -17 -6 -33 -11 -36 -11 -11 0 4 158 17 173 16 21 20 21 40
3z m1201 -17 c19 -9 44 -24 55 -33 19 -15 18 -15 -16 -16 -45 0 -110 -22 -150
-51 -45 -32 -27 -34 26 -3 57 33 182 47 202 22 10 -11 3 -14 -41 -14 -34 -1
-73 -11 -114 -29 -81 -36 -72 -45 12 -11 113 45 176 32 223 -46 28 -47 117
-287 109 -295 -2 -2 -22 4 -46 12 -87 31 -225 12 -347 -47 -72 -36 -173 -120
-174 -147 0 -10 -2 -11 -6 -4 -2 7 1 30 8 50 15 47 110 213 151 266 26 32 28
37 9 26 -24 -15 -80 -99 -127 -189 -57 -111 -35 18 26 155 34 75 35 79 18 69
-7 -5 -3 5 10 20 12 16 22 33 22 39 0 12 -57 -59 -75 -93 -7 -14 -20 -47 -30
-75 -20 -60 -32 -190 -16 -180 7 4 8 -1 4 -12 -12 -35 -17 -38 -24 -13 -22 78
2 237 49 333 16 31 25 57 20 57 -13 0 -50 -80 -74 -160 l-23 -75 0 47 c-1 61
17 143 41 191 22 44 19 60 -5 24 -34 -53 -51 -122 -51 -216 0 -74 -2 -87 -9
-60 -5 19 -7 75 -5 124 5 116 44 207 122 284 81 80 142 93 226 50z m-540 -75
c-99 -100 -206 -144 -348 -144 -60 0 -99 6 -125 18 l-38 17 93 2 c168 2 276
34 399 117 29 20 56 36 58 36 3 0 -15 -20 -39 -46z m-601 -104 c6 -41 12 -82
14 -90 1 -8 -2 -17 -8 -20 -10 -5 -27 77 -39 190 -6 52 -6 53 7 25 8 -16 19
-64 26 -105z m-142 38 c0 -46 10 -129 22 -186 22 -106 28 -214 12 -196 -17 17
-61 242 -61 309 0 37 -4 65 -10 65 -21 0 -12 -103 25 -265 14 -62 -14 -1 -32
70 -9 38 -19 61 -21 49 -1 -11 8 -56 22 -100 18 -57 21 -73 9 -59 -30 38 -64
123 -72 181 l-9 59 -1 -46 c-2 -74 19 -120 108 -243 23 -33 27 -43 17 -58 -15
-25 -21 -23 -65 21 -47 47 -90 135 -98 202 -3 27 -10 49 -14 49 -14 0 -11 -33
10 -99 26 -84 65 -147 114 -182 39 -28 43 -35 53 -99 10 -68 10 -69 -10 -54
-11 8 -29 14 -40 14 -18 0 -125 57 -228 122 -27 17 -48 37 -48 44 0 30 101
260 136 311 35 51 157 173 173 173 4 0 8 -37 8 -82z m840 18 c13 -13 -5 -14
-45 -4 -23 6 -40 14 -37 18 5 8 72 -3 82 -14z m-128 -59 c-11 -32 -17 -62 -14
-67 3 -5 21 -12 40 -16 45 -8 49 -15 34 -64 -10 -34 -16 -40 -40 -40 -24 0
-28 5 -39 51 -14 57 -10 106 15 163 24 56 27 40 4 -27z m917 1 c1 -45 0 -49
-12 -33 -15 20 -19 77 -7 88 12 13 18 -4 19 -55z m-1441 -25 c20 -44 23 -58
13 -65 -22 -13 -26 -9 -32 30 -4 20 -9 49 -12 65 -9 42 2 32 31 -30z m501 45
c-24 -60 -28 -89 -17 -132 6 -25 11 -68 11 -95 0 -28 5 -51 10 -51 6 0 10 13
10 28 0 25 3 28 28 24 25 -3 27 -7 30 -57 1 -30 -2 -56 -8 -60 -5 -3 -10 2
-10 12 0 25 -19 43 -46 43 -20 0 -22 7 -28 80 -6 68 -10 80 -26 80 -10 0 -25
11 -34 25 -19 29 -50 32 -103 10 -20 -9 -43 -13 -51 -10 -7 2 -26 -2 -42 -10
-67 -35 -173 -6 -205 56 -21 40 -20 40 33 11 43 -25 56 -27 163 -27 l115 0 80
41 c89 46 98 49 90 32z m1064 -29 c169 -85 252 -244 266 -507 13 -244 -62
-420 -232 -547 -66 -50 -74 -53 -74 -27 0 11 20 32 50 51 27 17 69 55 93 84
102 120 130 209 131 402 1 253 -62 395 -217 496 -32 21 -71 41 -87 44 -33 7
-41 35 -12 35 11 0 47 -14 82 -31z m-960 -22 c0 -20 -22 -37 -47 -37 -29 0
-37 18 -24 54 11 26 11 26 41 11 16 -9 30 -21 30 -28z m937 -22 c65 -33 157
-130 187 -197 72 -162 72 -424 2 -573 -35 -75 -115 -170 -172 -206 -59 -36
-60 -33 -79 326 -32 609 -32 675 -2 675 7 0 36 -11 64 -25z m-1641 -7 c4 -15
1 -25 -12 -35 -27 -20 -41 -16 -46 12 -8 42 45 63 58 23z m34 -63 c0 -7 -11
-22 -24 -32 -13 -10 -27 -30 -31 -43 l-9 -25 -7 25 c-15 53 -10 69 24 84 35
14 47 12 47 -9z m130 14 c0 -5 -4 -8 -9 -5 -5 3 -12 -1 -15 -10 -4 -10 -13
-13 -27 -9 -14 5 -19 3 -15 -3 3 -6 2 -13 -4 -17 -5 -3 -10 -1 -10 5 0 6 -4 8
-10 5 -23 -14 -8 6 16 21 22 15 27 15 35 3 7 -11 9 -11 9 4 0 9 7 17 15 17 8
0 15 -5 15 -11z m230 -21 c0 -5 -15 -8 -32 -7 -18 0 -26 3 -18 6 8 3 19 13 24
21 7 12 10 12 17 1 5 -8 9 -17 9 -21z m38 16 c6 3 21 2 34 -3 20 -8 20 -10 6
-16 -29 -12 -63 -1 -66 20 -2 15 -1 17 6 6 6 -7 14 -11 20 -7z m-138 -14 c0
-6 -27 -10 -61 -10 -37 0 -58 4 -54 10 3 6 31 10 61 10 30 0 54 -4 54 -10z
m235 0 c-18 -29 -74 -44 -180 -47 -87 -3 -106 -2 -91 8 11 7 62 12 120 13 78
1 108 5 127 18 29 20 32 21 24 8z m461 -25 c-8 -19 -20 -43 -26 -52 -9 -15
-10 -14 -4 7 8 30 33 80 39 80 3 0 -1 -16 -9 -35z m-428 -56 c7 -60 6 -68 -11
-78 -13 -9 -18 -20 -14 -37 2 -14 2 -22 -1 -19 -3 3 -13 -2 -22 -10 -16 -15
-18 -12 -24 42 -4 32 -9 74 -11 93 -4 31 -1 38 33 61 20 14 38 23 39 20 1 -3
6 -36 11 -72z m-328 46 c-9 -10 -31 -15 -72 -15 -53 0 -59 2 -48 15 9 10 31
15 72 15 53 0 59 -2 48 -15z m10 -170 c6 -71 14 -143 17 -160 5 -24 3 -28 -8
-19 -16 13 -203 16 -235 4 -19 -7 -20 -13 -14 -52 3 -24 10 -49 14 -56 5 -8
41 -12 112 -12 89 0 107 3 123 19 19 19 19 19 24 0 5 -17 15 -19 99 -18 51 1
118 4 148 9 43 5 23 7 -88 9 -104 1 -144 4 -147 14 -6 18 -44 391 -40 395 2 2
48 6 103 9 l100 6 5 -29 c4 -16 9 -60 13 -99 4 -38 12 -73 18 -77 6 -4 28 -8
49 -8 37 0 37 0 37 -42 -1 -37 -2 -40 -12 -23 -26 49 -77 59 -122 24 -21 -16
-26 -29 -26 -64 0 -36 5 -48 31 -69 18 -15 43 -26 60 -26 32 0 68 30 70 58 1
9 5 -10 9 -43 3 -33 6 -61 6 -62 -1 -2 -517 -6 -578 -4 -32 1 -38 5 -47 34 -5
17 -13 56 -16 85 -7 51 -6 52 19 52 19 0 26 5 26 20 0 25 -25 36 -45 20 -13
-10 -15 -8 -15 14 0 24 3 26 41 26 l41 0 -7 73 c-3 39 -8 84 -11 99 l-5 27
113 3 c62 2 116 1 120 -2 3 -3 11 -63 18 -135z m514 32 c18 -63 59 -123 116
-168 37 -30 80 -89 65 -89 -3 0 -28 11 -55 25 -56 28 -64 30 -54 13 4 -8 3
-10 -2 -5 -5 5 -9 12 -9 17 0 12 -76 84 -92 86 -21 3 -15 -13 18 -51 33 -38
65 -50 33 -12 l-19 22 22 -19 c13 -10 20 -22 18 -27 -7 -10 41 -44 95 -68 l42
-19 -66 -14 -65 -15 -50 47 c-48 47 -49 50 -60 131 -11 80 -9 119 2 61 3 -17
12 -29 21 -29 9 0 16 1 16 2 0 0 -9 26 -20 58 -28 79 -27 107 4 107 21 0 27
-8 40 -53z m719 -7 c15 -7 27 -19 27 -27 0 -16 4 -16 -45 2 -123 44 -348 -21
-465 -135 -42 -41 -50 -45 -50 -27 0 51 154 156 281 192 64 18 210 15 252 -5z
m-615 -114 c26 -26 30 -35 15 -27 -25 13 -62 59 -87 108 -25 51 -18 53 10 3
14 -25 42 -62 62 -84z m-240 92 c4 -20 -36 -34 -52 -18 -8 8 -6 15 9 26 23 17
39 14 43 -8z m835 -22 c32 -13 33 -15 50 -117 22 -130 22 -277 1 -348 -16 -55
-71 -120 -130 -153 l-30 -17 28 56 c15 31 28 70 28 88 0 47 -28 128 -56 161
l-24 29 26 -53 c52 -108 40 -218 -32 -282 -19 -16 -38 -30 -42 -30 -4 0 -27
-6 -52 -14 l-46 -14 26 52 c21 43 25 64 24 136 -1 135 -48 227 -139 274 l-30
16 41 0 c27 0 65 -12 108 -33 36 -19 66 -31 66 -28 0 13 -85 61 -117 67 -18 3
-36 11 -39 16 -4 6 1 8 12 5 11 -3 34 -8 52 -12 17 -4 56 -22 85 -41 l52 -35
-39 36 c-22 19 -35 35 -30 35 15 0 55 -29 103 -74 27 -26 39 -33 32 -19 -30
59 -160 133 -234 133 -18 0 -61 -14 -96 -30 -35 -17 -66 -29 -68 -26 -12 12
101 107 161 135 37 18 65 35 62 38 -3 4 -39 -10 -80 -31 -53 -26 -89 -52 -120
-89 -41 -46 -46 -49 -46 -27 0 54 151 160 276 195 65 18 177 18 217 1z m-779
-104 c6 -64 5 -75 -13 -98 -12 -15 -21 -40 -21 -55 0 -21 -5 -29 -18 -29 -17
0 -20 14 -28 121 l-9 122 33 15 c17 9 32 20 33 26 1 30 17 -38 23 -102z
m-1055 44 c9 -7 57 -37 106 -65 66 -37 83 -51 65 -51 -39 0 -200 98 -200 122
0 12 11 10 29 -6z m86 -105 c17 -11 14 -12 -21 -8 -48 5 -104 42 -104 69 0 15
8 13 53 -16 28 -18 61 -38 72 -45z m830 59 c25 -28 25 -88 0 -106 -27 -20 -69
-17 -90 6 -10 11 -15 23 -12 27 4 3 7 1 7 -5 0 -22 36 -32 69 -19 25 9 31 17
31 41 0 16 -7 38 -17 48 -19 21 -62 24 -83 6 -12 -11 -12 -10 -1 5 19 24 73
22 96 -3z m-23 -17 c10 -9 18 -20 18 -25 0 -4 -9 1 -20 12 -24 24 -34 25 -54
4 -9 -8 -16 -11 -16 -5 0 10 28 30 44 31 5 0 18 -7 28 -17z m-917 -23 c18 -20
17 -20 -19 -20 -34 0 -36 2 -26 20 6 11 14 20 19 20 4 0 16 -9 26 -20z m910
-20 c0 -16 -6 -26 -19 -28 -24 -5 -37 17 -25 41 14 26 44 17 44 -13z m-1502
-7 c-18 -2 -48 -2 -65 0 -18 2 -4 4 32 4 36 0 50 -2 33 -4z m557 -14 c278 -10
327 -14 341 -28 15 -14 52 -114 235 -621 18 -52 34 -102 33 -110 0 -8 -41 98
-90 235 -50 138 -110 302 -133 365 -33 91 -47 117 -66 127 -16 7 -170 17 -425
26 -220 8 -359 15 -310 16 50 0 236 -4 415 -10z m498 -28 c-4 -37 -22 -32 -26
6 -3 27 0 32 13 27 10 -4 15 -16 13 -33z m90 10 c4 -23 -15 -44 -30 -35 -4 3
-8 19 -8 35 0 24 4 30 18 27 9 -2 19 -14 20 -27z m83 -3 c5 -18 3 -28 -6 -32
-18 -7 -25 3 -25 37 0 35 21 32 31 -5z m-596 -9 c164 -6 244 -13 252 -22 6 -7
32 -70 56 -142 25 -71 82 -231 126 -354 45 -123 79 -226 76 -229 -2 -3 -100 5
-217 16 -117 12 -325 32 -462 44 -185 16 -254 26 -268 37 -23 20 -298 630
-298 662 0 13 234 9 735 -12z m1085 -17 c0 -15 -28 -47 -35 -40 -8 8 13 48 25
48 6 0 10 -4 10 -8z m358 -11 c88 -45 126 -124 127 -261 0 -79 -4 -102 -22
-136 -29 -54 -40 -62 -102 -70 l-54 -7 22 29 c28 39 42 125 29 187 -5 26 -11
47 -12 47 -1 0 -2 -39 -2 -87 1 -136 -28 -174 -145 -187 l-57 -7 24 47 c13 26
24 61 23 78 -1 27 -2 25 -14 -17 -7 -26 -21 -59 -30 -73 -21 -32 -71 -54 -107
-47 l-27 5 29 25 c52 43 65 143 30 236 -23 62 -60 101 -115 121 l-40 15 33 0
c19 1 47 -8 63 -20 16 -11 29 -15 29 -10 0 6 -14 20 -31 30 l-30 19 37 6 c35
7 40 4 93 -47 l56 -55 93 30 c60 19 92 35 92 44 0 8 -20 34 -44 58 -42 42 -43
44 -22 54 29 15 32 14 74 -7z m-318 -16 c16 -19 4 -35 -26 -35 -28 0 -29 3
-12 30 15 24 22 25 38 5z m221 -28 c51 -34 48 -50 -11 -69 l-50 -16 -22 31
c-12 18 -31 39 -43 47 -19 14 -18 15 20 21 67 10 71 10 106 -14z m-298 -4 c3
-5 -17 -22 -44 -39 -42 -28 -50 -30 -61 -17 -7 8 -21 19 -33 23 -16 7 -11 9
20 10 22 0 54 7 70 15 36 16 42 17 48 8z m161 -15 c32 -14 58 -52 50 -73 -5
-13 -1 -15 22 -10 23 4 25 3 9 -4 -31 -15 -42 -13 -48 10 -3 12 -10 18 -16 15
-5 -4 -13 -1 -17 5 -4 8 -3 9 4 5 7 -4 12 -5 12 -2 0 2 3 13 6 23 4 12 3 14
-3 5 -7 -9 -15 -6 -33 13 -26 28 -23 31 14 13z m-826 -41 c2 -18 -1 -27 -11
-27 -15 0 -27 20 -27 47 0 27 35 9 38 -20z m464 7 c-28 -29 -30 -29 -130 -26
-68 2 -102 0 -102 -7 0 -7 36 -11 99 -11 92 0 99 -1 94 -19 -4 -15 -18 -19
-70 -24 -52 -5 -82 -15 -142 -49 -42 -24 -94 -62 -117 -85 l-42 -42 -5 28 c-4
16 -3 45 0 65 l6 36 52 -6 c48 -6 53 -4 73 21 27 34 28 84 3 116 l-18 24 164
4 164 3 -29 -28z m-404 -4 c-7 -11 -20 -20 -29 -20 -12 0 -16 6 -12 20 3 13
14 20 29 20 22 0 23 -2 12 -20z m96 -45 c7 -27 -8 -65 -24 -65 -6 0 -5 9 2 20
17 27 0 74 -30 78 -12 2 -20 8 -17 13 10 16 62 -19 69 -46z m362 46 c-3 -4 3
-16 14 -26 11 -10 20 -22 20 -26 0 -4 -11 3 -25 17 -18 18 -32 23 -48 19 -21
-6 -21 -6 -3 9 21 17 51 22 42 7z m-415 -31 c23 -13 25 -53 3 -71 -13 -11 -14
-9 -8 15 4 19 1 33 -11 46 -20 22 -14 25 16 10z m587 -18 c34 -22 58 -61 76
-122 21 -72 7 -150 -34 -192 -40 -40 -56 -35 -24 8 36 46 44 125 20 189 -22
55 -72 125 -90 125 -8 0 -18 5 -21 10 -9 14 43 1 73 -18z m-162 -15 c5 -8 2
-7 -9 2 -9 7 -17 9 -17 3 0 -5 -13 -12 -30 -14 -35 -5 -39 5 -8 26 22 16 49 9
64 -17z m-448 0 c5 -26 -16 -47 -49 -47 -22 0 -30 6 -35 26 -8 32 9 45 51 42
19 -2 31 -9 33 -21z m545 12 c52 -29 99 -121 99 -196 1 -63 -27 -116 -63 -121
l-24 -4 25 27 c54 57 21 217 -56 269 -45 30 -29 50 19 25z m-16 -51 c25 -28
53 -81 53 -102 0 -15 -109 -56 -149 -56 -23 0 -122 -48 -146 -70 -17 -16 -23
-17 -39 -5 -18 13 -18 15 3 44 12 17 30 35 39 40 35 20 2 22 -36 2 -22 -11
-43 -17 -47 -13 -5 4 -5 2 -2 -4 4 -7 0 -17 -8 -24 -7 -6 -29 -35 -47 -63 -18
-29 -37 -55 -42 -59 -12 -8 -36 1 -36 14 0 5 4 7 9 4 5 -4 7 3 4 14 -4 14 -1
19 8 17 8 -2 11 -2 7 0 -17 10 -7 33 15 33 16 0 18 3 8 9 -10 7 -11 13 -1 31
11 20 13 20 29 6 25 -23 38 -20 17 3 -22 24 -17 34 34 62 61 34 48 41 -19 11
-32 -15 -58 -29 -57 -32 2 -10 -10 -11 -33 -2 l-24 9 31 22 c17 12 45 27 62
32 34 13 42 34 8 24 -13 -4 -45 -20 -72 -36 -57 -35 -72 -34 -18 0 20 14 54
35 74 49 33 21 41 23 69 13 38 -13 139 -87 139 -101 0 -12 11 -12 30 0 12 8 9
15 -20 45 -18 19 -38 35 -44 35 -5 0 4 -15 22 -33 18 -18 32 -37 32 -42 0 -5
-7 0 -15 12 -8 12 -38 36 -65 54 -56 37 -65 47 -19 24 39 -21 51 -12 12 9 -15
8 -23 15 -17 16 17 0 104 -60 115 -81 5 -10 15 -19 21 -19 15 0 -48 67 -85 90
l-27 17 72 6 c82 7 99 0 156 -62 30 -32 33 -34 26 -11 -9 33 -33 68 -53 80 -9
5 -11 10 -5 10 6 0 20 -10 31 -22z m-509 -180 c-18 -35 -23 -38 -28 -22 -5 12
0 29 12 47 29 41 41 23 16 -25z m554 -37 c-29 -40 -84 -47 -171 -23 l-72 20
-32 -26 c-29 -24 -30 -24 -12 -3 25 29 109 68 172 81 27 5 66 15 88 23 l40 14
3 -30 c2 -18 -4 -40 -16 -56z m-463 53 c2 -1 -5 -16 -15 -31 -11 -15 -24 -37
-30 -48 -12 -22 -54 -34 -54 -15 0 15 28 81 42 97 9 11 42 10 57 -3z m1161
-123 c0 -49 3 -96 6 -105 4 -11 0 -16 -14 -16 -11 0 -22 7 -26 15 -3 8 -15 15
-26 15 -18 0 -21 -5 -18 -37 3 -35 5 -38 38 -41 19 -2 38 -9 42 -15 9 -15 10
-108 2 -171 l-7 -46 -52 0 c-29 0 -73 3 -99 6 -44 6 -46 8 -46 40 0 18 7 59
15 91 8 32 15 100 15 154 0 108 10 149 37 149 10 0 41 11 68 24 28 14 53 25
58 25 4 1 7 -39 7 -88z m-1023 33 c6 -17 -33 -64 -54 -64 -18 0 -16 16 4 51
19 32 40 38 50 13z m153 -9 c30 -8 73 -15 95 -15 22 0 47 -5 55 -11 12 -8 11
-9 -5 -5 -11 2 -71 8 -132 11 -103 7 -134 15 -100 28 20 8 29 8 87 -8z m684
-17 c-4 -13 -6 -66 -6 -118 1 -95 -10 -179 -20 -150 -3 8 -13 36 -22 62 -17
46 -93 144 -104 133 -3 -3 8 -20 25 -38 114 -119 123 -348 23 -553 -43 -89
-116 -166 -194 -206 -67 -34 -175 -67 -241 -74 -62 -6 -62 -6 -67 21 -5 22 2
35 38 70 68 69 102 148 113 269 l6 71 69 8 c38 4 88 16 111 26 l43 19 6 -21
c17 -63 -4 -188 -43 -266 -11 -21 -36 -59 -56 -85 -20 -27 -34 -50 -32 -52 9
-10 69 73 105 145 36 72 37 78 37 182 0 101 1 109 22 118 20 9 22 7 28 -37 6
-49 -7 -171 -25 -216 -12 -33 -13 -43 -1 -30 28 30 53 176 41 246 -4 29 -4 57
0 62 10 10 30 -56 30 -101 0 -17 5 -35 10 -38 14 -9 12 41 -4 103 -16 64 -4
70 14 7 7 -25 16 -48 21 -51 10 -6 -18 91 -38 131 -8 17 -24 39 -34 50 -11 11
-42 50 -69 86 -27 37 -66 81 -87 98 -21 18 -29 29 -18 25 14 -5 17 -4 10 4 -5
5 -46 22 -90 36 -62 20 -70 25 -35 20 52 -8 187 -63 241 -99 43 -28 57 -32 39
-10 -16 19 -83 57 -152 85 -32 13 -56 26 -53 28 2 3 40 10 82 17 61 10 81 10
93 1 29 -24 130 -76 130 -67 0 4 -30 25 -67 44 l-68 36 45 1 c37 0 66 6 148
29 2 1 0 -9 -4 -21z m-924 -38 c0 -15 -7 -20 -25 -20 -24 0 -24 1 -7 19 22 25
32 26 32 1z m303 12 l48 -7 -188 -72 c-206 -78 -244 -91 -228 -75 6 5 51 25
100 43 50 18 96 37 102 42 22 16 3 27 -45 27 l-47 0 30 25 c26 21 40 24 105
24 41 -1 96 -4 123 -7z m122 -11 c-16 -7 -9 -11 38 -25 71 -21 151 -70 200
-125 56 -62 44 -61 -15 1 -57 59 -138 104 -208 116 -30 5 -44 13 -46 25 -2 13
5 17 24 16 24 0 25 -1 7 -8z m-61 -19 c-15 -14 -326 -133 -331 -128 -3 3 14
13 38 23 280 114 321 129 293 105z m105 -41 c92 -29 151 -72 204 -148 41 -60
86 -159 76 -167 -2 -1 -20 -12 -40 -23 l-37 -21 -5 35 c-12 69 -81 178 -130
205 -12 6 -2 -11 26 -43 51 -58 82 -115 92 -172 7 -35 6 -36 -32 -45 -21 -6
-63 -12 -95 -15 l-56 -5 -7 36 c-22 117 -134 245 -245 278 -59 17 -60 19 -35
27 64 22 223 -39 321 -121 69 -57 93 -102 68 -127 -21 -20 -41 -8 -94 55 -23
27 -56 60 -73 72 -19 13 1 -14 47 -65 44 -48 87 -87 97 -87 33 0 49 12 49 37
0 36 -17 63 -69 111 -63 59 -121 92 -216 123 l-80 27 55 17 c54 17 56 17 125
-7 39 -14 79 -28 90 -33 18 -7 19 -6 5 8 -9 9 -47 28 -85 41 -85 30 -48 36 44
7z m-454 -26 c-36 -17 -55 -19 -55 -6 0 10 28 18 65 19 15 0 12 -3 -10 -13z
m-939 -82 c75 -35 163 -118 202 -190 35 -64 44 -56 11 9 -28 55 -103 134 -159
166 l-45 27 34 3 c48 5 84 -13 136 -69 42 -45 105 -157 105 -186 0 -8 -14 -13
-36 -13 -57 0 -121 -20 -145 -46 l-22 -23 -50 45 c-69 62 -121 90 -197 108
-119 29 -126 17 -7 -13 41 -11 95 -32 119 -47 65 -40 128 -105 128 -131 0 -21
-2 -22 -21 -12 -12 6 -41 31 -65 55 -23 24 -45 44 -49 44 -15 0 52 -74 91
-101 38 -26 63 -63 52 -75 -3 -2 -53 10 -113 26 -110 31 -205 49 -193 36 3 -4
37 -14 75 -22 37 -8 109 -27 158 -43 77 -24 91 -32 99 -55 9 -23 6 -30 -25
-55 -58 -50 -116 -73 -193 -79 -62 -5 -67 -7 -36 -13 69 -15 184 24 234 80 11
12 25 21 32 21 16 0 37 -36 30 -49 -10 -16 -172 -90 -222 -101 -49 -11 -145
-6 -174 10 -8 4 -42 60 -75 124 -52 102 -60 124 -63 184 -7 128 42 250 132
328 38 33 45 35 88 30 27 -3 68 -14 93 -25 25 -11 45 -16 45 -12 0 11 -73 43
-118 51 l-37 7 35 16 c50 23 81 21 146 -10z m1171 -3 c97 -43 195 -173 205
-270 2 -29 -1 -36 -17 -38 -16 -2 -26 10 -48 61 -40 91 -112 168 -199 211 -39
20 -77 36 -84 36 -8 0 -14 4 -14 9 0 26 90 21 157 -9z m-266 0 c-24 -21 -51
-26 -51 -11 0 5 12 14 28 19 42 16 49 13 23 -8z m-670 -39 c26 -27 62 -80 80
-117 29 -60 34 -82 37 -165 4 -82 1 -102 -18 -147 -12 -29 -26 -52 -30 -52
-16 0 -17 14 -4 63 38 144 -7 317 -111 421 -41 41 -44 46 -24 46 14 0 41 -19
70 -49z m60 -3 c22 -24 57 -79 79 -123 46 -92 55 -81 11 12 -16 34 -49 82 -72
108 -25 27 -36 45 -27 45 8 0 18 -3 22 -7 4 -4 26 -6 50 -4 24 1 47 -2 50 -8
4 -5 21 -7 40 -4 29 4 36 1 59 -28 29 -40 66 -112 78 -152 13 -44 -4 -68 -46
-65 -31 2 -37 8 -60 53 -29 59 -124 187 -144 193 -7 2 7 -20 31 -50 42 -51
118 -169 118 -182 0 -7 -68 -8 -96 0 -14 4 -26 21 -37 57 -18 57 -59 126 -101
170 -21 21 -23 27 -11 27 9 0 34 -19 56 -42z m794 -2 c79 -38 150 -104 188
-174 38 -71 42 -92 20 -92 -13 0 -28 18 -46 56 -54 109 -152 191 -271 225
l-61 18 50 0 c38 1 68 -7 120 -33z m-493 -41 c31 -56 34 -83 14 -110 -12 -17
-14 -16 -20 17 -3 20 -24 62 -45 95 l-39 60 32 -6 c24 -5 37 -18 58 -56z m31
46 c13 -5 30 -23 37 -41 11 -27 11 -34 -3 -48 -9 -8 -18 -14 -19 -11 -25 39
-56 109 -49 109 5 0 21 -4 34 -9z m116 -11 c9 0 2 -9 -18 -21 -18 -11 -34 -19
-36 -17 -1 2 -8 14 -15 27 -12 23 -11 24 20 17 18 -3 40 -6 49 -6z m307 -25
c31 -15 80 -51 108 -80 53 -53 101 -134 93 -157 -2 -7 -15 9 -27 36 -24 49
-124 166 -143 166 -5 0 15 -26 45 -58 31 -32 67 -81 82 -109 l25 -51 -26 -18
c-15 -9 -28 -13 -30 -8 -8 22 -45 76 -49 71 -3 -3 6 -23 20 -46 14 -22 23 -47
20 -56 -5 -12 -17 1 -47 45 -65 101 -179 173 -266 169 -17 -1 -9 -5 24 -13 79
-20 126 -46 180 -101 53 -54 91 -124 82 -149 -5 -12 -17 -4 -53 34 -57 61
-115 90 -175 89 l-44 -1 46 -8 c65 -11 118 -41 167 -94 42 -45 47 -61 36 -102
-6 -21 -6 -21 -54 -3 -48 18 -212 50 -219 43 -9 -8 6 -13 97 -28 117 -20 176
-48 168 -79 -3 -12 -6 -43 -6 -68 l0 -47 -44 -11 c-25 -6 -71 -12 -103 -12
-54 -2 -55 -2 -18 -8 37 -6 114 1 153 13 13 5 18 0 20 -18 1 -20 -6 -26 -56
-42 -44 -15 -87 -19 -187 -19 -123 0 -133 2 -188 29 -32 15 -60 33 -62 40 -1
6 -10 36 -18 66 -25 86 -24 186 1 240 12 25 22 52 22 60 0 8 -10 -5 -22 -30
-28 -61 -35 -31 -14 63 40 177 127 247 288 234 90 -8 193 -61 250 -129 47 -55
64 -58 22 -3 -70 92 -225 164 -329 151 -29 -3 -62 -9 -72 -12 -14 -6 -16 -4
-6 6 19 21 114 40 185 36 48 -2 83 -11 124 -31z m615 -18 c28 -53 40 -97 28
-97 -5 0 -9 6 -9 13 0 6 -13 40 -30 75 -32 69 -23 76 11 9z m-1371 -248 c0
-72 -16 -149 -31 -149 -13 0 -20 18 -36 83 -7 34 -23 77 -33 95 -11 18 -20 35
-20 38 0 2 27 4 60 4 l60 0 0 -71z m256 56 c20 -5 21 -8 12 -47 -9 -40 -3
-255 9 -305 l5 -21 -91 23 c-88 22 -141 46 -141 64 0 5 7 15 17 22 24 21 63
110 62 144 -1 24 -5 18 -20 -30 -19 -63 -78 -146 -79 -112 0 10 10 37 22 60
16 31 23 66 26 130 l5 88 76 -6 c42 -3 86 -8 97 -10z m-374 -22 c15 -26 50
-144 45 -149 -1 -2 -31 28 -65 66 l-62 69 26 20 c34 27 36 26 56 -6z m1196
-80 c-3 -39 -16 -95 -30 -130 -24 -60 -82 -140 -102 -142 -5 -1 0 9 12 22 41
43 75 137 80 222 4 74 12 94 36 95 5 0 6 -30 4 -67z m-55 30 c12 -65 -39 -241
-81 -275 -10 -9 -9 -1 6 27 27 54 45 149 41 219 -3 47 -1 56 12 56 10 0 19
-11 22 -27z m-54 -65 c-2 -86 -6 -76 -11 25 -2 31 0 57 5 57 4 0 6 -37 6 -82z
m-1124 31 c42 -44 42 -44 -17 -14 -23 11 -38 26 -38 37 0 27 12 22 55 -23z
m1101 6 c3 -19 3 -61 -2 -93 l-8 -57 -6 45 c-4 25 -13 60 -20 78 -9 26 -10 36
0 47 19 23 29 18 36 -20z m-41 -70 l6 -40 -19 40 c-10 22 -17 46 -14 54 7 19
18 -3 27 -54z m-1058 23 c24 -15 32 -24 22 -26 -25 -5 -69 16 -69 33 0 19 2
19 47 -7z m1043 -54 c0 -7 3 -21 6 -31 4 -13 0 -11 -15 7 -11 14 -21 36 -20
50 0 24 0 24 14 6 8 -11 15 -25 15 -32z m-986 5 c44 -12 37 -22 -26 -33 -31
-6 -39 -3 -47 13 -6 11 -11 22 -11 25 0 9 42 7 84 -5z m982 -70 l25 -51 -35
27 c-24 18 -36 36 -36 51 0 38 18 28 46 -27z m-883 -1 c49 -53 67 -93 68 -155
1 -41 2 -44 8 -18 6 27 11 18 40 -75 18 -58 39 -125 47 -149 25 -78 19 -106
-32 -161 -53 -56 -79 -67 -42 -17 58 77 71 97 67 102 -3 2 -23 -19 -45 -48
-36 -48 -39 -50 -42 -27 -2 14 -8 37 -13 51 -9 23 -5 34 26 83 19 31 32 56 28
56 -4 0 -21 -20 -36 -45 -32 -49 -48 -57 -45 -22 1 12 -8 44 -21 70 -12 26
-29 75 -37 108 -13 55 -13 65 1 85 9 13 11 24 6 24 -5 0 -11 -7 -15 -15 -10
-26 -21 -17 -50 42 -32 67 -26 77 47 69 26 -3 45 -1 42 3 -7 13 -65 19 -101
11 -28 -7 -33 -4 -43 18 -7 13 -10 26 -9 27 3 3 84 22 102 24 5 1 27 -18 49
-41z m866 -34 c33 -23 48 -66 66 -185 10 -72 12 -120 6 -157 -4 -29 -6 -83 -4
-120 3 -43 -1 -89 -11 -128 -9 -34 -16 -80 -16 -102 0 -23 -5 -53 -11 -69 -11
-30 -62 -88 -91 -104 -15 -8 -14 -2 4 53 11 35 25 68 30 74 5 7 4 22 -1 37 -9
23 -7 29 19 47 17 12 30 26 30 31 0 6 -12 1 -27 -11 l-28 -21 -7 27 c-6 24 -3
32 28 57 36 30 78 100 71 120 -2 7 -13 -8 -24 -33 -11 -25 -32 -56 -47 -69
l-26 -24 0 41 c0 22 4 43 8 46 5 3 7 53 5 112 l-4 108 41 37 c22 20 40 44 40
52 0 10 -15 1 -40 -26 l-39 -42 -1 36 c0 21 7 42 15 49 8 7 15 17 15 23 0 5
-8 3 -19 -7 -18 -16 -19 -15 -24 26 -6 46 2 138 12 138 4 0 17 -7 30 -16z
m-986 -48 c15 -23 15 -26 -4 -50 -28 -35 -82 -62 -153 -75 -78 -14 -86 -26
-13 -17 71 8 139 39 172 77 l24 29 12 -39 c14 -47 4 -66 -47 -87 -71 -30 -231
-24 -329 12 -15 5 -17 4 -9 -5 20 -22 127 -44 211 -44 72 0 91 4 143 30 61 30
70 28 70 -15 0 -9 14 -46 30 -80 17 -37 27 -69 22 -77 -13 -24 -104 -88 -151
-106 -32 -13 -39 -18 -23 -19 30 0 76 24 130 68 35 28 46 32 53 21 6 -9 3 -19
-9 -29 -10 -8 -34 -28 -53 -43 -25 -21 -28 -25 -9 -16 14 7 39 23 57 36 31 24
32 24 42 4 17 -31 13 -45 -21 -79 -46 -44 -97 -62 -175 -63 -56 0 -64 -2 -43
-11 57 -23 165 6 223 60 15 14 27 20 27 13 0 -51 -91 -101 -185 -101 -65 0
-120 21 -170 64 l-30 26 28 -10 c43 -15 98 -11 142 10 22 11 29 16 15 12 -14
-4 -60 -7 -104 -7 -76 0 -79 1 -105 32 -14 17 -37 60 -50 95 -13 35 -50 115
-83 179 -32 64 -58 118 -58 120 0 2 47 4 104 4 l104 0 99 51 c54 28 99 52 99
53 1 0 9 -10 17 -23z m540 -164 c77 -29 204 -30 312 -2 43 11 80 20 82 20 2 0
3 -14 1 -32 -3 -30 -7 -34 -63 -51 -80 -25 -251 -26 -315 -3 -74 28 -120 63
-120 92 0 25 1 26 23 12 12 -8 48 -25 80 -36z m26 -86 c31 -9 92 -16 141 -16
75 0 114 7 218 36 22 6 22 6 21 -100 l-1 -106 -31 -27 c-18 -14 -63 -41 -102
-59 -38 -18 -62 -33 -53 -34 23 0 63 18 125 57 l52 32 -5 -32 c-7 -37 -37 -64
-97 -89 -27 -11 -35 -17 -21 -17 11 -1 41 9 66 22 l46 23 6 -25 c3 -17 -1 -30
-12 -39 -30 -23 -125 -46 -192 -45 -98 0 -148 18 -197 69 -47 49 -59 44 -17
-6 44 -51 98 -73 194 -78 82 -4 126 5 213 43 14 6 17 2 17 -19 0 -32 -39 -59
-120 -82 -100 -30 -109 -35 -56 -29 27 3 74 16 104 30 30 14 57 23 60 20 12
-12 -23 -63 -54 -78 -80 -39 -190 -31 -267 19 -22 14 -41 23 -44 20 -11 -11
91 -65 134 -72 59 -9 143 0 181 20 29 15 30 15 25 -4 -12 -44 -186 -61 -275
-27 -58 23 -129 98 -147 157 -18 59 -23 161 -14 260 l8 84 43 -106 c23 -59 42
-111 42 -117 0 -6 4 -11 9 -11 11 0 -19 91 -72 220 -20 47 -39 102 -42 123
l-7 38 33 -20 c19 -11 58 -26 88 -35z m-258 -318 c33 -89 5 -160 -68 -174 -32
-6 -40 -3 -60 20 -18 22 -23 39 -23 85 l0 57 63 51 c47 38 63 46 65 34 2 -9
12 -42 23 -73z m-162 -114 c1 -27 -9 -60 -29 -100 -40 -79 -111 -174 -130
-174 -20 0 -40 19 -40 39 0 12 3 12 12 3 15 -15 45 -16 53 -1 4 5 -1 19 -10
29 -21 24 -10 47 12 25 12 -12 18 -13 29 -4 12 10 12 14 -2 30 -20 22 -9 46
12 28 12 -10 18 -9 31 3 17 18 10 38 -13 38 -9 0 -14 6 -11 13 2 6 16 11 31 9
37 -4 36 34 -1 50 -26 11 -27 12 -6 15 27 5 49 31 37 43 -5 4 -20 10 -34 12
-24 4 -24 5 10 19 35 16 35 15 41 -10 4 -14 7 -44 8 -67z m-92 50 c-7 -7 -107
-7 -115 0 -3 3 23 6 58 6 35 0 61 -3 57 -6z m274 -109 c-45 -63 -70 -124 -71
-170 0 -37 -6 -45 -87 -118 l-88 -77 -12 36 c-7 21 -24 52 -38 70 l-25 33 23
28 c42 50 108 153 119 184 9 28 12 29 27 15 25 -22 83 -20 114 4 14 11 32 37
39 56 l13 35 8 -26 c8 -22 4 -34 -22 -70z m-276 75 c-8 -13 -85 -13 -105 0
-11 7 4 10 48 10 40 0 61 -4 57 -10z m5 -30 c11 -7 -3 -10 -47 -10 -36 0 -63
4 -63 10 0 13 90 13 110 0z m-11 -36 c11 -9 -8 -12 -51 -7 -27 3 -48 9 -48 14
0 8 89 1 99 -7z m357 -82 c4 -29 2 -47 -7 -58 -13 -16 -108 -74 -122 -74 -11
0 4 79 23 125 10 22 30 55 46 74 l28 34 13 -29 c6 -16 15 -48 19 -72z m-367
52 c2 -2 2 -6 -1 -9 -7 -8 -98 7 -98 15 0 7 90 1 99 -6z m-20 -30 c2 -2 2 -6
-1 -9 -8 -8 -98 7 -98 17 0 8 89 1 99 -8z m-38 -24 c11 0 19 -5 19 -10 0 -13
-81 -2 -95 13 -7 6 1 8 24 3 18 -3 42 -6 52 -6z m-12 -36 c13 -13 -11 -12 -45
1 l-39 15 40 -6 c22 -3 42 -8 44 -10z m971 -28 c0 -24 3 -51 6 -59 8 -22 -58
-84 -96 -89 -28 -4 -31 -2 -26 16 2 12 10 49 16 83 11 56 15 63 41 68 16 4 31
11 34 16 14 22 25 6 25 -35z m-982 -1 c13 -13 -7 -13 -43 1 l-40 15 39 -5 c21
-3 41 -8 44 -11z m457 -61 c-10 -15 -53 -43 -103 -67 -50 -24 -116 -66 -155
-99 -110 -95 -217 -138 -339 -138 -55 0 -72 4 -88 20 -26 26 -27 44 -1 30 32
-17 144 -12 212 10 87 27 156 69 231 139 35 32 95 75 133 95 39 21 81 49 95
62 l25 25 3 -26 c2 -15 -4 -38 -13 -51z m324 50 c2 -2 2 -7 -2 -10 -9 -9 -88
7 -82 16 5 8 74 2 84 -6z m91 -2 c0 -98 -125 -372 -170 -372 -14 0 -32 39 -24
51 4 8 9 8 17 0 6 -6 19 -11 29 -11 25 0 23 35 -3 54 -26 18 -17 41 11 26 10
-5 23 -10 29 -10 17 0 13 42 -6 55 -23 17 -8 38 18 25 22 -12 39 -6 39 15 0
20 -75 51 -142 59 -44 6 -56 11 -51 22 3 8 13 12 22 10 9 -3 38 -8 64 -12 27
-3 51 -12 53 -18 2 -6 20 -12 39 -13 32 -3 35 0 35 23 0 17 -6 28 -20 31 -31
8 -24 23 11 23 29 0 31 2 27 30 -3 20 0 30 9 30 7 0 13 -8 13 -18z m-916 -1
c14 -6 26 -19 28 -33 2 -12 19 -33 38 -46 40 -27 80 -86 80 -120 0 -46 -191
-112 -286 -97 -23 3 -47 11 -52 18 -17 22 -23 67 -13 105 11 40 84 117 135
142 16 8 31 20 33 27 6 15 5 15 37 4z m775 -22 c34 -7 50 -14 44 -20 -13 -13
-155 13 -160 28 -5 13 27 11 116 -8z m20 -44 c13 -3 21 -8 18 -11 -7 -7 -137
18 -137 26 0 7 58 -1 119 -15z m222 -83 c-11 -22 -26 -73 -33 -113 -11 -70
-23 -97 -96 -213 l-24 -39 -14 39 c-7 21 -27 51 -43 66 l-30 27 47 83 c27 46
54 97 61 114 10 26 20 33 53 38 24 4 50 17 66 34 34 34 40 16 13 -36z m-226 6
c7 -7 1 -9 -18 -4 -15 3 -47 9 -72 13 -25 3 -45 9 -45 13 0 10 123 -10 135
-22z m264 -68 c1 -27 -7 -45 -30 -70 l-30 -35 5 51 c2 27 13 70 22 94 17 42
19 43 25 20 4 -14 7 -41 8 -60z m-326 55 c33 -4 47 -11 47 -22 0 -11 -6 -14
-22 -10 -13 4 -42 9 -65 13 -28 4 -43 12 -43 21 0 9 7 12 18 10 9 -3 38 -8 65
-12z m-18 -41 l50 -13 -49 5 c-54 6 -108 23 -71 22 11 0 43 -6 70 -14z m-12
-25 c20 -5 37 -13 37 -18 0 -16 -12 -19 -38 -11 -15 5 -40 11 -55 14 -15 4
-25 11 -22 16 8 13 31 13 78 -1z m-5 -44 c29 -9 52 -20 52 -25 0 -5 -16 -2
-37 6 -20 9 -63 19 -97 24 -59 7 -59 8 -15 9 25 0 69 -6 97 -14z m-118 -15 c0
-9 -51 -40 -66 -40 -4 0 3 11 16 25 24 25 50 33 50 15z m101 -11 c32 -8 35
-12 31 -37 -4 -30 7 -43 61 -72 41 -22 79 -77 75 -109 -6 -49 -137 -111 -236
-111 -74 0 -124 15 -163 47 -29 24 -31 31 -27 74 3 30 17 68 38 102 26 44 41
57 71 66 22 7 46 22 54 35 16 25 17 25 96 5z m369 -33 c-6 -20 -31 -53 -54
-73 -24 -22 -59 -70 -81 -111 -45 -86 -103 -134 -198 -164 -133 -42 -307 11
-307 94 0 18 4 17 34 -10 35 -31 105 -52 171 -52 49 0 148 33 203 69 52 33 71
56 120 142 33 58 111 153 119 145 3 -3 0 -21 -7 -40z"/>
    <path d="M8349 5243 c-47 -50 -49 -53 -14 -26 47 36 80 71 74 78 -3 2 -30 -21
-60 -52z"/>
    <path d="M8197 5135 c-27 -26 5 -84 38 -71 23 9 29 34 15 62 -15 27 -32 31
-53 9z m44 -21 c10 -13 10 -17 -2 -24 -17 -11 -45 13 -35 29 10 15 21 14 37
-5z"/>
    <path d="M8220 5025 c-10 -12 -10 -21 -1 -41 13 -28 38 -29 55 -1 22 35 -27
74 -54 42z m45 -25 c0 -22 -29 -18 -33 3 -3 14 1 18 15 15 10 -2 18 -10 18
-18z"/>
    <path d="M7372 5048 c-7 -7 -12 -18 -12 -24 0 -14 27 -44 40 -44 11 0 40 29
40 40 0 13 -30 40 -44 40 -6 0 -17 -5 -24 -12z m48 -28 c0 -13 -7 -20 -20 -20
-13 0 -20 7 -20 20 0 13 7 20 20 20 13 0 20 -7 20 -20z"/>
    <path d="M9006 4834 c-39 -39 -1 -184 48 -184 35 0 49 41 36 105 -10 49 -39
95 -60 95 -5 0 -16 -7 -24 -16z m55 -72 c8 -38 -1 -92 -16 -92 -11 0 -35 69
-35 98 0 31 19 57 33 43 5 -5 13 -27 18 -49z"/>
    <path d="M9036 4543 c-4 -10 -4 -46 0 -81 5 -47 11 -65 26 -73 33 -18 48 6 48
76 0 35 -3 70 -6 79 -8 22 -60 21 -68 -1z m54 -78 c0 -51 -3 -65 -15 -65 -10
0 -15 10 -15 34 0 18 -3 48 -6 65 -6 27 -4 31 15 31 19 0 21 -5 21 -65z"/>
    <path d="M9123 3349 c-8 -8 -13 -39 -13 -75 0 -54 3 -64 20 -69 32 -10 40 3
40 59 0 62 -25 107 -47 85z m27 -75 c0 -30 -4 -54 -9 -54 -10 0 -20 87 -13
107 9 28 22 -2 22 -53z"/>
    <path d="M7344 4075 c26 -53 123 -136 158 -135 7 1 -3 9 -22 20 -33 17 -79 59
-130 120 l-21 25 15 -30z"/>
    <path d="M7914 4078 c4 -46 11 -87 15 -91 4 -4 41 -7 82 -5 l74 3 -2 30 c-1
17 -4 56 -8 88 l-6 57 -81 0 -81 0 7 -82z m149 -1 c5 -38 6 -71 4 -73 -2 -3
-31 -7 -65 -10 l-60 -6 -9 74 c-5 40 -7 77 -5 81 2 4 31 7 65 5 l62 -3 8 -68z"/>
    <path d="M7664 4059 c3 -17 6 -44 6 -60 l0 -29 100 0 100 0 -6 48 c-9 75 -4
72 -110 72 l-96 0 6 -31z m180 -11 c17 -64 13 -68 -73 -68 -85 0 -90 4 -91 68
0 21 4 22 79 22 73 0 79 -2 85 -22z"/>
    <path d="M8990 4005 l-35 -13 50 1 c28 1 62 -2 78 -6 16 -4 27 -3 27 3 0 8
-11 12 -70 25 -8 2 -31 -3 -50 -10z"/>
    <path d="M8940 3971 c0 -7 19 -11 48 -11 26 0 58 -3 72 -6 22 -5 23 -4 7 6
-26 17 -127 26 -127 11z"/>
    <path d="M8973 3929 c20 -5 56 -18 78 -30 23 -11 43 -18 45 -16 13 13 -93 58
-134 56 -23 -1 -21 -2 11 -10z"/>
    <path d="M8774 3896 c-18 -8 -35 -19 -38 -25 -4 -6 9 -4 28 4 20 8 58 15 85
15 42 0 57 -6 109 -44 75 -56 109 -100 132 -173 15 -46 19 -52 19 -28 1 65
-52 144 -144 215 -28 21 -29 22 -5 15 43 -13 98 -44 134 -75 44 -39 58 -39 21
0 -83 86 -253 134 -341 96z"/>
    <path d="M7120 3575 c-7 -8 -10 -21 -7 -29 4 -10 -2 -16 -20 -18 -54 -6 -56
-62 -4 -121 26 -28 35 -33 77 -32 44 0 49 3 58 27 8 23 6 32 -11 50 -15 16
-19 28 -13 38 12 22 -3 42 -33 43 -21 2 -23 5 -16 20 18 32 -8 50 -31 22z m62
-82 c-2 -12 4 -33 14 -47 24 -38 13 -55 -37 -52 -33 2 -47 8 -65 32 -21 25
-32 73 -20 85 3 2 28 4 58 4 49 0 53 -2 50 -22z"/>
    <path d="M8781 3648 c-1 -3 6 -34 15 -69 18 -70 13 -130 -16 -196 -23 -53 -11
-57 15 -5 28 57 31 186 6 237 -11 22 -20 37 -20 33z"/>
    <path d="M8472 3525 c20 -58 21 -126 3 -180 -6 -19 -6 -19 8 -2 35 43 26 164
-17 222 -10 14 -8 2 6 -40z"/>
    <path d="M8746 3465 c4 -27 8 -52 10 -54 9 -10 3 76 -7 89 -7 11 -8 1 -3 -35z"/>
    <path d="M8560 3152 c25 -20 66 -58 93 -84 54 -55 68 -62 36 -17 -25 35 -148
139 -163 139 -6 -1 9 -17 34 -38z"/>
    <path d="M8416 2735 c-4 -16 -12 -50 -17 -74 -15 -68 -58 -150 -102 -198 -22
-24 -35 -43 -29 -43 19 0 85 84 112 144 31 67 55 166 48 187 -3 8 -8 1 -12
-16z"/>
    <path d="M6710 2983 c-50 -10 -39 -19 18 -15 32 2 75 -1 97 -7 44 -12 61 -6
23 8 -33 13 -107 20 -138 14z"/>
    <path d="M6653 2880 c-13 -5 -23 -11 -23 -12 0 -2 47 -3 104 -3 67 0 99 3 89
9 -24 13 -144 18 -170 6z"/>
    <path d="M6824 2631 c4 -6 17 -11 29 -11 28 -1 89 -28 65 -29 -10 -1 -18 -6
-18 -12 0 -14 42 -7 47 8 5 15 -40 39 -91 49 -28 5 -37 4 -32 -5z"/>
    <path d="M6875 2529 c-36 -14 -71 -18 -127 -17 -87 3 -91 -13 -5 -20 58 -5
148 16 182 42 25 20 13 18 -50 -5z"/>
    <path d="M7454 2997 c24 -34 55 -87 69 -117 14 -30 26 -48 26 -39 1 23 -48
117 -89 172 -52 70 -58 56 -6 -16z"/>
    <path d="M7813 2863 c4 -6 27 -13 52 -16 49 -7 109 -35 165 -75 l35 -26 -28
31 c-16 17 -56 43 -89 58 -64 29 -146 46 -135 28z"/>
    <path d="M7621 2634 c-29 -19 -51 -38 -47 -41 3 -3 34 13 68 35 35 23 56 42
48 41 -8 0 -39 -16 -69 -35z"/>
    <path d="M7913 2530 c-34 -14 -28 -30 17 -47 73 -29 40 -47 -83 -45 -91 1
-168 21 -220 56 -20 14 -37 22 -37 17 0 -15 35 -39 90 -62 46 -19 74 -23 166
-23 80 -1 116 3 127 13 27 22 20 39 -23 52 -51 15 -51 29 -1 29 22 0 43 5 46
10 8 12 -51 12 -82 0z"/>
    <path d="M7590 2459 c0 -22 94 -108 140 -128 54 -23 177 -41 167 -24 -4 6 -35
12 -70 15 -79 7 -130 32 -190 97 -26 27 -47 46 -47 40z"/>
    <path d="M7350 2284 c0 -9 -15 -31 -34 -50 -19 -19 -28 -34 -21 -34 19 0 65
58 65 81 0 10 -2 19 -5 19 -3 0 -5 -7 -5 -16z"/>
    <path d="M6795 2260 c4 -7 33 -24 64 -38 49 -23 69 -26 166 -27 85 0 118 4
145 18 26 12 28 16 10 12 -170 -39 -228 -32 -384 43 -5 3 -5 -1 -1 -8z"/>
    <path d="M7170 2113 c-82 -65 -132 -86 -188 -80 -26 2 -56 8 -67 12 -15 6 -17
5 -9 -4 21 -23 83 -30 135 -17 48 13 93 39 159 95 56 47 30 42 -30 -6z"/>
    <path d="M7620 2204 c0 -29 153 -184 182 -184 5 0 -20 25 -56 56 -36 31 -66
59 -66 63 -1 11 -60 75 -60 65z"/>
    <path d="M7377 1892 c-63 -39 -71 -55 -10 -23 47 24 80 48 73 53 -3 2 -31 -11
-63 -30z"/>
  </g>
</svg>