<svg width="139" height="139" viewBox="0 0 139 139" fill="none" xmlns="http://www.w3.org/2000/svg">
<path fill-rule="evenodd" clip-rule="evenodd" d="M0 69.3533C0 31.0799 31.08 0 69.3533 0C107.572 0 138.707 31.0799 138.707 69.3533C138.707 107.572 107.572 138.707 69.3533 138.707C31.08 138.707 0 107.572 0 69.3533ZM1.59251 69.3533C1.59251 106.693 32.0135 137.059 69.3533 137.059C106.693 137.059 137.059 106.693 137.059 69.3533C137.059 31.9585 106.693 1.59243 69.3533 1.59243C32.0135 1.59243 1.59251 31.9585 1.59251 69.3533Z" fill="url(#paint0_linear_2027_7)"/>
<path fill-rule="evenodd" clip-rule="evenodd" d="M0 69.3533C0 31.0799 31.08 0 69.3533 0C107.572 0 138.707 31.0799 138.707 69.3533C138.707 107.572 107.572 138.707 69.3533 138.707C31.08 138.707 0 107.572 0 69.3533ZM1.59251 69.3533C1.59251 106.693 32.0134 137.059 69.3533 137.059C106.693 137.059 137.059 106.693 137.059 69.3533C137.059 31.9585 106.693 1.59243 69.3533 1.59243C32.0134 1.59243 1.59251 31.9585 1.59251 69.3533Z" fill="url(#paint1_linear_2027_7)"/>
<path d="M52.5503 94.1736C54.2526 93.295 55.186 92.9655 56.6137 92.691C62.9835 135.192 95.7656 137.444 118.06 109.549C128.328 96.6446 129.866 84.0149 130.58 77.9747C130.744 77.9198 130.909 77.8648 131.019 77.8648C131.129 77.9747 131.239 78.0845 131.348 78.1943C131.348 78.1394 132.007 75.1193 130.909 74.1309C129.262 75.0094 128.493 80.3358 128.383 81.7635C129.042 80.2809 129.152 80.1162 129.536 79.3475C125.912 114.216 88.5722 141.562 68.1451 115.315C61.5558 106.858 60.7871 98.3468 60.2379 92.7458C61.8853 93.0753 62.9285 93.5695 64.5209 94.4481C64.5758 91.3731 62.05 89.0119 58.5356 88.7373C54.9664 88.8471 52.4405 91.0985 52.5503 94.1736Z" fill="url(#paint2_linear_2027_7)"/>
<path d="M52.5503 94.1736C54.2526 93.295 55.186 92.9655 56.6137 92.6909C62.9835 135.192 95.7656 137.444 118.06 109.549C128.328 96.6446 129.866 84.0149 130.58 77.9747C130.744 77.9198 130.909 77.8648 131.019 77.8648C131.129 77.9747 131.239 78.0845 131.348 78.1943C131.348 78.1394 132.007 75.1193 130.909 74.1309C129.262 75.0094 128.493 80.3358 128.383 81.7635C129.042 80.2809 129.152 80.1162 129.536 79.3475C125.912 114.216 88.5722 141.562 68.1451 115.315C61.5558 106.858 60.7871 98.3468 60.2379 92.7458C61.8853 93.0753 62.9285 93.5695 64.5209 94.4481C64.5758 91.3731 62.05 89.0119 58.5356 88.7373C54.9664 88.8471 52.4405 91.0985 52.5503 94.1736Z" fill="url(#paint3_linear_2027_7)"/>
<path d="M115.205 69.6276C116.578 77.5898 118.445 81.1041 120.202 79.0175C124.76 73.6362 120.037 55.0761 115.864 55.131C115.754 55.131 115.644 55.1859 115.535 55.1859C113.173 56.6685 114.711 66.6075 115.205 69.6276Z" fill="url(#paint4_linear_2027_7)"/>
<path d="M115.205 69.6276C116.578 77.5898 118.445 81.1041 120.202 79.0175C124.76 73.6362 120.037 55.0761 115.864 55.131C115.754 55.131 115.644 55.1859 115.535 55.1859C113.173 56.6685 114.711 66.6075 115.205 69.6276Z" fill="url(#paint5_linear_2027_7)"/>
<path d="M76.7668 75.8879C77.4257 84.3992 81.0499 89.1216 84.2348 85.6073C89.3965 79.8965 86.8705 62.215 80.8851 61.9404C77.1511 62.7092 76.3824 70.891 76.7668 75.8879Z" fill="url(#paint6_linear_2027_7)"/>
<path d="M76.7668 75.8879C77.4257 84.3992 81.0499 89.1216 84.2348 85.6073C89.3965 79.8965 86.8705 62.215 80.8851 61.9404C77.1511 62.7092 76.3824 70.891 76.7668 75.8879Z" fill="url(#paint7_linear_2027_7)"/>
<defs>
<linearGradient id="paint0_linear_2027_7" x1="383214" y1="65729.9" x2="418250" y2="65729.9" gradientUnits="userSpaceOnUse">
<stop stop-color="white"/>
<stop offset="1" stop-color="#929292"/>
</linearGradient>
<linearGradient id="paint1_linear_2027_7" x1="383214" y1="65729.9" x2="418250" y2="65729.9" gradientUnits="userSpaceOnUse">
<stop stop-color="white"/>
<stop offset="1" stop-color="#929292"/>
</linearGradient>
<linearGradient id="paint2_linear_2027_7" x1="225962" y1="32870.8" x2="237331" y2="32870.8" gradientUnits="userSpaceOnUse">
<stop stop-color="white"/>
<stop offset="1" stop-color="#7B7B7B"/>
</linearGradient>
<linearGradient id="paint3_linear_2027_7" x1="225962" y1="32870.8" x2="237331" y2="32870.8" gradientUnits="userSpaceOnUse">
<stop stop-color="white"/>
<stop offset="1" stop-color="#7B7B7B"/>
</linearGradient>
<linearGradient id="paint4_linear_2027_7" x1="23290" y1="14096.1" x2="23401" y2="14096.1" gradientUnits="userSpaceOnUse">
<stop stop-color="white"/>
<stop offset="1" stop-color="#919191"/>
</linearGradient>
<linearGradient id="paint5_linear_2027_7" x1="23290" y1="14096.1" x2="23401" y2="14096.1" gradientUnits="userSpaceOnUse">
<stop stop-color="white"/>
<stop offset="1" stop-color="#919191"/>
</linearGradient>
<linearGradient id="paint6_linear_2027_7" x1="30141.2" y1="14652.2" x2="30336.3" y2="14652.2" gradientUnits="userSpaceOnUse">
<stop stop-color="white"/>
<stop offset="1" stop-color="#8F8F8F"/>
</linearGradient>
<linearGradient id="paint7_linear_2027_7" x1="30141.2" y1="14652.2" x2="30336.3" y2="14652.2" gradientUnits="userSpaceOnUse">
<stop stop-color="white"/>
<stop offset="1" stop-color="#8F8F8F"/>
</linearGradient>
</defs>
</svg>
